<svg xmlns="http://www.w3.org/2000/svg" viewBox="0 0 750 500"><g id="freepik--background-complete--inject-3"><rect x="322.47" y="94.25" width="87.56" height="338.99" style="fill:#f5f5f5"></rect><rect x="410.03" y="94.25" width="21.09" height="338.99" style="fill:#e0e0e0"></rect><rect x="334.25" y="105.35" width="43.43" height="70.43" style="fill:#ebebeb"></rect><rect x="353.03" y="105.35" width="43.43" height="70.43" style="fill:#e0e0e0"></rect><rect x="334.25" y="186.98" width="43.43" height="70.43" style="fill:#ebebeb"></rect><rect x="353.03" y="186.98" width="43.43" height="70.43" style="fill:#e0e0e0"></rect><rect x="334.25" y="273.13" width="43.43" height="70.43" style="fill:#ebebeb"></rect><rect x="353.03" y="273.13" width="43.43" height="70.43" style="fill:#e0e0e0"></rect><rect x="335.14" y="355.22" width="43.43" height="70.43" style="fill:#ebebeb"></rect><rect x="353.92" y="355.22" width="43.43" height="70.43" style="fill:#e0e0e0"></rect><rect x="388.93" y="109.99" width="18.52" height="47.38" style="fill:#fff"></rect><rect x="388.93" y="138.9" width="18.52" height="18.47" style="fill:#ebebeb"></rect><path d="M407.45,157.37a1.22,1.22,0,0,1,0-.24c0-.19,0-.41,0-.7,0-.64,0-1.52,0-2.66,0-2.34,0-5.69-.06-9.88,0-8.43-.07-20.23-.12-33.9l.25.25H388.94c.51-.52.14-.13.25-.24h0v13.56c0,4.39,0,8.61,0,12.63,0,8,0,15.2-.06,21.16l-.18-.18,13.52.1,3.69,0,1,0,.34,0-.31,0-.93,0-3.65,0-13.63.1h-.18v-.18c0-6,0-13.14-.06-21.16,0-4,0-8.24,0-12.63q0-3.28,0-6.69V110h0c.12-.12-.26.24.27-.28H407.7V110c-.05,13.74-.09,25.6-.12,34.07,0,4.17-.05,7.5-.07,9.82q0,1.68,0,2.61c0,.27,0,.49,0,.67A1.48,1.48,0,0,1,407.45,157.37Z" style="fill:#e0e0e0"></path><path d="M404.44,124.39a77.43,77.43,0,0,1-12.68,0,77.43,77.43,0,0,1,12.68,0Z" style="fill:#e0e0e0"></path><path d="M404.44,127.69a77.43,77.43,0,0,1-12.68,0,74.57,74.57,0,0,1,12.68,0Z" style="fill:#e0e0e0"></path><path d="M404.44,131a77.43,77.43,0,0,1-12.68,0,77.43,77.43,0,0,1,12.68,0Z" style="fill:#e0e0e0"></path><path d="M398.86,134.28a24.37,24.37,0,0,1-7.1,0,24.37,24.37,0,0,1,7.1,0Z" style="fill:#e0e0e0"></path><path d="M399.32,151.52v1.13H398.1v-1.09a5.35,5.35,0,0,1-2.57-.77l.66-1.48a4.53,4.53,0,0,0,2.34.7c.84,0,1.16-.24,1.16-.58,0-1.13-4-.31-4-3,0-1.12.8-2.06,2.45-2.27V143.1h1.22v1.09a5,5,0,0,1,2.06.6l-.62,1.5a4.15,4.15,0,0,0-2-.55c-.85,0-1.15.28-1.15.64,0,1.09,4,.27,4,2.9C401.67,150.35,400.9,151.29,399.32,151.52Z" style="fill:#fff"></path><path d="M398.1,94.25a60.62,60.62,0,0,1,.26,7.87,60.49,60.49,0,0,1-.26,7.87,60.49,60.49,0,0,1-.26-7.87A60.62,60.62,0,0,1,398.1,94.25Z" style="fill:#e0e0e0"></path><rect x="392.2" y="117.08" width="7.58" height="2.61" style="fill:#e0e0e0"></rect><path d="M579,337.52a5.74,5.74,0,0,0-4.47,5.85c.24,6.13,1,16.86,3.44,23.15,3.55,9.17,4.44,12.73,11.24,12.43s102.68,0,102.68,0,8.58.3,12.13-12.13,11.54-60.66,7.1-69.24-23.37-11.25-31.66-10.66-23.65-1.8-43.78,23.36l-19.84,22.63A185.92,185.92,0,0,0,579,337.52Z" style="fill:#f5f5f5"></path><path d="M645.4,299.84,626.24,353.5H590.73s-2.8-18-8-16.74c0,0,26-4.33,33.12-3.85Z" style="fill:#e0e0e0"></path><path d="M657.31,379.36s3.85-5.05,5.62-14.22,6.22-28.71-2.81-28.41c0,0,26.19.83,31.51-3.43s20.27-33.07,20.27-33.07,1.43,10.84-.79,26.83-4.68,34.53-7.05,40.15-4.14,12.15-12.13,12.13S657.31,379.36,657.31,379.36Z" style="fill:#ebebeb"></path><path d="M590.42,379s1.76,5.28,12.93,5.28h76.2s9.67-.21,12.38-5.3Z" style="fill:#e0e0e0"></path><polygon points="604.72 382.48 576.51 432.83 578.66 432.83 610.79 382.48 604.72 382.48" style="fill:#e0e0e0"></polygon><path d="M626.46,381.6c0,.69-7.05,51.23-7.05,51.23h2l12.73-50.35Z" style="fill:#e0e0e0"></path><path d="M647,382.48c-.19,1.77,8.43,50.35,8.43,50.35h2.74l-3.53-50.35Z" style="fill:#e0e0e0"></path><polygon points="669.76 382.48 701.49 432.83 704.24 432.83 677.4 382.48 669.76 382.48" style="fill:#e0e0e0"></polygon><path d="M662.93,365.14a1.1,1.1,0,0,1,.05-.28c0-.21.11-.48.19-.81.17-.74.4-1.78.7-3.1a81,81,0,0,0,1.7-11.55,25.66,25.66,0,0,0-.55-8,6.37,6.37,0,0,0-2.23-3.65c-1.19-.92-2.86-.89-4.42-.64a9.45,9.45,0,0,0-4.38,2.1,14.87,14.87,0,0,0-3.25,4,30.44,30.44,0,0,0-3.45,10.33l0,.23h-1L607,353.69l-11.9-.09-3.23-.05-.84,0-.29,0,.29,0,.84,0,3.23-.05,11.9-.08,39.27-.08H647l-.26.23A30.85,30.85,0,0,1,650.3,343a15,15,0,0,1,3.38-4.1,9.9,9.9,0,0,1,4.61-2.19,8.56,8.56,0,0,1,1.24-.14l.61,0,.63.05a5.56,5.56,0,0,1,1.21.26c.19.07.37.18.56.27a2.27,2.27,0,0,1,.52.32,6.86,6.86,0,0,1,2.38,3.9,26.28,26.28,0,0,1,.5,8.12A75.4,75.4,0,0,1,664.07,361c-.32,1.34-.6,2.38-.8,3.08l-.24.79A1.36,1.36,0,0,1,662.93,365.14Z" style="fill:#e0e0e0"></path><rect x="671.05" y="351.19" width="17.87" height="45.73" style="fill:#fff"></rect><rect x="671.05" y="379.09" width="17.87" height="17.83" style="fill:#ebebeb"></rect><path d="M688.92,396.92a1.35,1.35,0,0,1,0-.24V396c0-.62,0-1.48,0-2.57,0-2.26,0-5.49-.07-9.54,0-8.13-.07-19.53-.12-32.71l.25.25H671.05c.52-.52.14-.14.26-.25h0v6.63c0,2.19,0,4.35,0,6.47,0,4.23,0,8.3,0,12.18,0,7.74,0,14.67-.06,20.43l-.18-.18,13,.1,3.56,0,.94,0,.33,0-.3,0-.9,0-3.52,0-13.15.1h-.18v-.18c0-5.76,0-12.69-.06-20.43,0-3.88,0-7.95,0-12.18v-13.1h0c.11-.12-.27.25.26-.27h18.12v.25c0,13.25-.09,24.7-.12,32.88,0,4,0,7.24-.07,9.48q0,1.62,0,2.52c0,.26,0,.47,0,.64S688.92,396.92,688.92,396.92Z" style="fill:#e0e0e0"></path><path d="M686,365.08a72.16,72.16,0,0,1-12.24,0,72.16,72.16,0,0,1,12.24,0Z" style="fill:#e0e0e0"></path><path d="M686,368.26a72.16,72.16,0,0,1-12.24,0,72.16,72.16,0,0,1,12.24,0Z" style="fill:#e0e0e0"></path><path d="M686,371.45a72.16,72.16,0,0,1-12.24,0,69.5,69.5,0,0,1,12.24,0Z" style="fill:#e0e0e0"></path><path d="M680.63,374.63a22.69,22.69,0,0,1-6.85,0,22.69,22.69,0,0,1,6.85,0Z" style="fill:#e0e0e0"></path><path d="M681.07,391.27v1.09h-1.18v-1.05a5.19,5.19,0,0,1-2.48-.75l.64-1.43a4.36,4.36,0,0,0,2.27.68c.8,0,1.11-.23,1.11-.56,0-1.09-3.9-.3-3.9-2.85,0-1.08.77-2,2.36-2.18v-1.08h1.18v1.06a4.82,4.82,0,0,1,2,.57l-.6,1.45a3.94,3.94,0,0,0-1.9-.53c-.81,0-1.11.27-1.11.62,0,1.05,3.9.26,3.9,2.79C683.35,390.14,682.6,391,681.07,391.27Z" style="fill:#fff"></path><path d="M679.9,336a56.44,56.44,0,0,1,.26,7.6,56.44,56.44,0,0,1-.26,7.6,54.52,54.52,0,0,1-.26-7.6A54.52,54.52,0,0,1,679.9,336Z" style="fill:#ebebeb"></path><rect x="674.2" y="358.02" width="7.32" height="2.52" style="fill:#e0e0e0"></rect><rect x="696.09" y="65.7" width="6.15" height="105.24" transform="translate(0.17 -0.99) rotate(0.08)" style="fill:#e0e0e0"></rect><rect x="571.89" y="67.96" width="124.19" height="100.84" transform="translate(0.17 -0.9) rotate(0.08)" style="fill:#fff"></rect><path d="M698.37,171.25l-128.91-.18.15-105.56,128.91.19Zm-124.19-4.88,119.48.16.14-96.13-119.48-.16Z" style="fill:#ebebeb"></path><rect x="619.56" y="104.77" width="34.81" height="27.1" transform="translate(0.17 -0.9) rotate(0.08)" style="fill:#e0e0e0"></rect><rect x="668.82" y="80.81" width="16.94" height="43.34" style="fill:#fff"></rect><rect x="668.82" y="107.25" width="16.94" height="16.89" style="fill:#e0e0e0"></rect><path d="M685.75,124.14a2.07,2.07,0,0,1,0-.23l0-.63c0-.59,0-1.4,0-2.44,0-2.14,0-5.21-.07-9,0-7.71-.07-18.5-.12-31l.25.25H668.82c.52-.53.14-.14.26-.25h0v6.28c0,2.08,0,4.12,0,6.13,0,4,0,7.87,0,11.54,0,7.34,0,13.9-.06,19.36l-.18-.18,12.35.1,3.38,0,.89,0a1.92,1.92,0,0,1,.31,0,1.21,1.21,0,0,1-.28,0l-.85,0-3.34,0-12.46.1h-.18v-.18c0-5.46,0-12-.06-19.36,0-3.67,0-7.53,0-11.54V80.83h0c.11-.12-.27.24.26-.27H686v.25c0,12.56-.09,23.41-.11,31.16,0,3.81-.06,6.85-.07,9,0,1,0,1.8,0,2.38,0,.24,0,.44,0,.61S685.76,124.15,685.75,124.14Z" style="fill:#e0e0e0"></path><path d="M683,94a64.82,64.82,0,0,1-11.6,0A64.82,64.82,0,0,1,683,94Z" style="fill:#e0e0e0"></path><path d="M683,97a64.82,64.82,0,0,1-11.6,0A64.82,64.82,0,0,1,683,97Z" style="fill:#e0e0e0"></path><path d="M683,100a64.82,64.82,0,0,1-11.6,0,64.82,64.82,0,0,1,11.6,0Z" style="fill:#e0e0e0"></path><path d="M677.9,103a20.44,20.44,0,0,1-6.5,0,20.44,20.44,0,0,1,6.5,0Z" style="fill:#e0e0e0"></path><path d="M678.31,118.79v1H677.2v-1a5.06,5.06,0,0,1-2.35-.71l.6-1.36a4.11,4.11,0,0,0,2.15.64c.76,0,1.06-.21,1.06-.53,0-1-3.7-.27-3.7-2.69,0-1,.73-1.89,2.24-2.07v-1h1.11v1a4.4,4.4,0,0,1,1.89.55l-.57,1.36a3.87,3.87,0,0,0-1.8-.5c-.77,0-1.05.26-1.05.59,0,1,3.69.25,3.69,2.64C680.47,117.72,679.76,118.58,678.31,118.79Z" style="fill:#fff"></path><path d="M677.2,66.4a49.06,49.06,0,0,1,.26,7.2,49.14,49.14,0,0,1-.26,7.21,50.87,50.87,0,0,1-.26-7.21A50.78,50.78,0,0,1,677.2,66.4Z" style="fill:#e0e0e0"></path><rect x="671.81" y="87.28" width="6.93" height="2.39" style="fill:#e0e0e0"></rect><path d="M474.67,145.17s-15.16,60.64-15.85,113,0,146.08,0,146.08H518.5l0-148.31c0-45.23-10.13-84.32-16.94-110.77Z" style="fill:#e0e0e0"></path><rect x="485.88" y="403.19" width="2.63" height="29.51" style="fill:#e0e0e0"></rect><path d="M452,433.73h72.62s-8.4-5.65-37.44-5.65S452,433.73,452,433.73Z" style="fill:#e0e0e0"></path><rect x="484.01" y="160.28" width="16.94" height="43.34" style="fill:#fff"></rect><rect x="484.01" y="186.72" width="16.94" height="16.89" style="fill:#ebebeb"></rect><path d="M500.94,203.61a2,2,0,0,1,0-.22c0-.17,0-.38,0-.64,0-.59,0-1.4,0-2.44,0-2.14,0-5.21-.07-9,0-7.71-.07-18.5-.11-31l.24.25H484c.52-.52.14-.14.26-.25h0v6.29q0,3.1,0,6.12c0,4,0,7.87,0,11.54,0,7.34,0,13.91-.06,19.36l-.18-.18,12.36.1,3.37,0,.89,0,.31,0s-.08,0-.27,0l-.86,0-3.34,0-12.46.09h-.18v-.18c0-5.45,0-12-.06-19.36,0-3.67,0-7.53,0-11.54V160.3h0c.12-.12-.26.25.26-.27H501.2v.25c0,12.56-.08,23.41-.11,31.16,0,3.81-.06,6.86-.07,9,0,1,0,1.8,0,2.38l0,.61C501,203.55,501,203.62,500.94,203.61Z" style="fill:#e0e0e0"></path><path d="M498.19,173.44a64.71,64.71,0,0,1-11.59,0,64.71,64.71,0,0,1,11.59,0Z" style="fill:#e0e0e0"></path><path d="M498.19,176.46a64.71,64.71,0,0,1-11.59,0,64.71,64.71,0,0,1,11.59,0Z" style="fill:#e0e0e0"></path><path d="M498.19,179.47a64.71,64.71,0,0,1-11.59,0,64.71,64.71,0,0,1,11.59,0Z" style="fill:#e0e0e0"></path><path d="M493.09,182.49a20.38,20.38,0,0,1-6.49,0,20.38,20.38,0,0,1,6.49,0Z" style="fill:#e0e0e0"></path><path d="M493.5,198.26v1h-1.11v-1a5.06,5.06,0,0,1-2.35-.71l.6-1.35a4.14,4.14,0,0,0,2.15.64c.76,0,1.06-.22,1.06-.53,0-1-3.7-.28-3.7-2.7,0-1,.73-1.88,2.24-2.07v-1h1.11v1a4.54,4.54,0,0,1,1.89.55l-.57,1.37A3.77,3.77,0,0,0,493,193c-.77,0-1,.26-1,.59,0,1,3.69.25,3.69,2.65C495.66,197.19,495,198.05,493.5,198.26Z" style="fill:#fff"></path><path d="M492.4,145.88a50.66,50.66,0,0,1,.26,7.2,50.78,50.78,0,0,1-.26,7.2,48.17,48.17,0,0,1-.27-7.2A48.06,48.06,0,0,1,492.4,145.88Z" style="fill:#ebebeb"></path><rect x="487" y="166.76" width="6.93" height="2.39" style="fill:#e0e0e0"></rect></g><g id="freepik--Floor--inject-3"><path d="M712,433.65c0,.14-151.8.26-339,.26S34,433.79,34,433.65s151.77-.26,339.06-.26S712,433.5,712,433.65Z" style="fill:#263238"></path></g><g id="freepik--Plant--inject-3"><path d="M453.39,304.32s-2.73-34.51-28.84-66.22-50.18-30.39-50.18-30.39,27.09-10.19,55.42,23.76S453.39,304.32,453.39,304.32Z" style="fill:#455a64"></path><path d="M447.2,180.77c-.57-1,1.69,76.79,1.69,76.79l6,55.76s4.67-41.22,3.7-62.37S452.33,189.34,447.2,180.77Z" style="fill:#455a64"></path><path d="M476.13,181s-11.78,7.32-15.66,64.24c-3,43.62-4.94,60.32-5.57,65.77a7.47,7.47,0,0,0,0,2.34s14.3-40.41,18.53-62.27S471.93,197.62,476.13,181Z" style="fill:#455a64"></path><path d="M457.48,325.06c-.06,1.42,4.75-18.67,29.77-43.23,23.28-22.86,33.69-23.69,33.69-23.69s-24.05,3.18-40.19,20.34C466.5,293.63,458.18,310.61,457.48,325.06Z" style="fill:#455a64"></path><path d="M454.65,347.61c-2.66-9.91-5.62-19.92-11.28-28.48s-14.44-15.59-24.63-16.76c16.36,12.14,28.27,26.09,35.91,45.24" style="fill:#455a64"></path><path d="M454.92,308.5s-4.35-38.56-31.92-50.75c-15.37-6.8-38.3-2.69-38.3-2.69s28.78,3.81,39.44,10.62S454.92,308.5,454.92,308.5Z" style="fill:#455a64"></path><path d="M454,421a1.47,1.47,0,0,1-.05-.49c0-.38,0-.85,0-1.42,0-1.33,0-3.15-.06-5.45,0-4.84,0-11.67,0-20.07.08-17,.19-40.39.31-66.2q0-4.85.07-9.57c0-1.58,0-3.14,0-4.69,0-.81,0-1.52.08-2.39s.37-1.5.5-2.26c.61-3,1-5.93,1.59-8.83s1.19-5.68,1.77-8.42c1.11-5.49,2.33-10.67,3.2-15.57L463.88,262c.85-4.15,1.28-8,1.79-11.28s.9-6.16,1.24-8.54.62-4.07.82-5.39c.08-.57.14-1,.2-1.41a1.69,1.69,0,0,1,.1-.47,1.53,1.53,0,0,1,0,.49c0,.38,0,.84-.09,1.41-.1,1.25-.34,3.07-.62,5.42s-.65,5.26-1.07,8.57-.83,7.16-1.63,11.32-1.53,8.76-2.39,13.66-2,10.11-3.11,15.61q-.84,4.11-1.73,8.42c-.58,2.85-.95,5.82-1.56,8.84-.13.74-.37,1.55-.49,2.22a20.31,20.31,0,0,0-.06,2.24l0,4.68q0,4.73-.07,9.57c-.24,25.81-.45,49.17-.61,66.2-.13,8.4-.23,15.23-.31,20.06-.05,2.3-.1,4.12-.13,5.45,0,.58-.05,1-.07,1.42A2.75,2.75,0,0,1,454,421Z" style="fill:#263238"></path><path d="M460.68,313.36c.15.05-.35,1.94-1.1,5s-1.7,7.29-2.5,12-1.34,9.05-1.7,12.18-.58,5.06-.73,5.06-.18-2,0-5.13A110.6,110.6,0,0,1,456,330.2a97.66,97.66,0,0,1,2.83-12C459.8,315.13,460.55,313.32,460.68,313.36Z" style="fill:#263238"></path><path d="M470.58,433.65c5.92-5.3,6.9-14.44,4.83-22.11s-6.6-14.4-10.38-21.39L443.47,390c-3.87,6.94-8.51,13.6-10.68,21.24s-1.32,16.8,4.53,22.18Z" style="fill:#66371B"></path><path d="M451.88,212.71a3.1,3.1,0,0,1,.18,1c.08.76.18,1.68.3,2.79.24,2.42.52,5.93.82,10.27.6,8.68,1.19,20.69,1.6,34s.49,25.3.32,34c-.07,4.36-.21,7.88-.35,10.31-.08,1.11-.14,2-.2,2.79a4,4,0,0,1-.14,1,3.28,3.28,0,0,1-.07-1V305c0-2.59,0-6.07,0-10.29,0-8.69-.24-20.7-.63-34s-.88-25.26-1.29-34c-.19-4.21-.36-7.69-.48-10.28,0-1.12-.08-2-.1-2.8A3.09,3.09,0,0,1,451.88,212.71Z" style="fill:#263238"></path><path d="M434.53,245.33a9.41,9.41,0,0,1,1.3,1.79c.79,1.18,1.85,2.94,3.1,5.15a140.64,140.64,0,0,1,14.29,36.91c.57,2.47,1,4.49,1.18,5.89a8,8,0,0,1,.24,2.2c-.16,0-.83-3-2.14-7.91a178.62,178.62,0,0,0-14.23-36.73C436,248.14,434.39,245.42,434.53,245.33Z" style="fill:#263238"></path><path d="M422.68,260.52a6.4,6.4,0,0,1,2.07,1,41.87,41.87,0,0,1,5.12,3.51,69.58,69.58,0,0,1,6.81,6.17,46.74,46.74,0,0,1,6.72,9.07,156.14,156.14,0,0,1,9.07,18.27c1,2.4,1.78,4.37,2.28,5.74a9.07,9.07,0,0,1,.67,2.17,9.63,9.63,0,0,1-1.05-2c-.7-1.53-1.57-3.4-2.58-5.6-2.22-4.7-5.26-11.22-9.29-18a49,49,0,0,0-6.52-8.94,79.15,79.15,0,0,0-6.59-6.26,58,58,0,0,0-4.86-3.74A18.43,18.43,0,0,1,422.68,260.52Z" style="fill:#263238"></path></g><g id="freepik--Pictures--inject-3"><rect x="183.63" y="227.18" width="2.3" height="39.3" transform="translate(0.35 -0.27) rotate(0.08)" style="fill:#263238"></rect><rect x="137.25" y="228.03" width="46.38" height="37.66" transform="translate(0.35 -0.23) rotate(0.08)" style="fill:#fff"></rect><path d="M184.48,266.6l-48.14-.07.06-39.42,48.14.07Zm-46.38-1.83,44.62.07.05-35.9-44.62-.06Z" style="fill:#455a64"></path><rect x="152.38" y="240.75" width="16.11" height="12.55" transform="translate(0.35 -0.23) rotate(0.08)" style="fill:#e0e0e0"></rect><rect x="281.49" y="74.2" width="7.27" height="124.35" transform="translate(0.19 -0.4) rotate(0.08)" style="fill:#263238"></rect><rect x="134.73" y="76.88" width="146.75" height="119.16" transform="translate(0.19 -0.29) rotate(0.08)" style="fill:#fff"></rect><path d="M284.18,198.93l-152.32-.21L132,74l152.32.22Zm-146.74-5.77,141.18.19.16-113.59-141.18-.2Z" style="fill:#455a64"></path><rect x="153.13" y="92.87" width="108.37" height="84.37" transform="translate(0.19 -0.29) rotate(0.08)" style="fill:#e0e0e0"></rect><rect x="249.26" y="92.05" width="20.01" height="51.21" style="fill:#fff"></rect><rect x="249.26" y="123.3" width="20.01" height="19.96" style="fill:#66371B"></rect><path d="M269.28,143.26a1.33,1.33,0,0,1,0-.26c0-.2,0-.44,0-.75,0-.69,0-1.65,0-2.88,0-2.52,0-6.14-.07-10.68,0-9.1-.07-21.86-.11-36.64l.25.25h-20c.51-.52.14-.13.26-.25v14.68c0,4.74,0,9.31,0,13.65,0,8.66,0,16.43-.05,22.87l-.18-.18,14.61.1,4,0,1.05,0,.37,0a2.14,2.14,0,0,1-.34,0l-1,0-3.95,0-14.71.1h-.19v-.18c0-6.44,0-14.21-.05-22.87,0-4.34,0-8.91,0-13.65V92.06c.12-.11-.26.25.27-.27h20.26v.25c0,14.85-.09,27.67-.12,36.81,0,4.52-.05,8.12-.07,10.63,0,1.2,0,2.15,0,2.82l0,.72A1.66,1.66,0,0,1,269.28,143.26Z" style="fill:#263238"></path><path d="M266,107.61a46,46,0,0,1-6.86.26,46,46,0,0,1-6.85-.26,46,46,0,0,1,6.85-.26A46,46,0,0,1,266,107.61Z" style="fill:#263238"></path><path d="M266,111.17a44.48,44.48,0,0,1-6.86.26,44.39,44.39,0,0,1-6.85-.26,46,46,0,0,1,6.85-.26A46,46,0,0,1,266,111.17Z" style="fill:#263238"></path><path d="M266,114.74a46,46,0,0,1-6.86.26,46,46,0,0,1-6.85-.26,44.39,44.39,0,0,1,6.85-.26A44.48,44.48,0,0,1,266,114.74Z" style="fill:#263238"></path><path d="M260,118.3a28.49,28.49,0,0,1-7.68,0,28.49,28.49,0,0,1,7.68,0Z" style="fill:#263238"></path><path d="M260.49,136.94v1.22h-1.32V137a5.9,5.9,0,0,1-2.78-.83l.71-1.61a4.86,4.86,0,0,0,2.54.76c.9,0,1.25-.25,1.25-.63,0-1.22-4.37-.33-4.37-3.18,0-1.21.87-2.23,2.65-2.45v-1.21h1.32V129a5.32,5.32,0,0,1,2.23.64l-.67,1.62a4.53,4.53,0,0,0-2.14-.59c-.91,0-1.24.3-1.24.69,0,1.17,4.36.29,4.36,3.13C263,135.67,262.2,136.68,260.49,136.94Z" style="fill:#fff"></path><path d="M259.17,75c.15,0,.26,4.93.26,11s-.11,11-.26,11-.26-4.93-.26-11S259,75,259.17,75Z" style="fill:#263238"></path><rect x="252.8" y="99.71" width="8.19" height="2.82" style="fill:#263238"></rect></g><g id="freepik--Table--inject-3"><rect x="596.03" y="383.77" width="123.86" height="11.02" style="fill:#455a64"></rect><polygon points="616.14 391.1 589.13 434.49 596 434.49 639.71 391.1 616.14 391.1" style="fill:#455a64"></polygon><polygon points="697.18 391.1 724.19 434.49 717.32 434.49 673.61 391.1 697.18 391.1" style="fill:#455a64"></polygon><rect x="662.91" y="294.04" width="3.68" height="87.91" style="fill:#263238"></rect><polygon points="643.52 383.68 662.91 379.27 666.59 379.27 688.09 383.68 643.52 383.68" style="fill:#263238"></polygon><polygon points="644 263.59 621.66 303.12 708.34 303.12 686.24 263.59 644 263.59" style="fill:#e0e0e0"></polygon><path d="M644,263.59l.74,0,2.21,0,8.45-.06,30.84-.1h.12l.06.11L708.56,303l.21.38H686.06l-64.4-.05h-.36l.17-.31,16.38-28.77,4.54-7.92,1.19-2.06.42-.68s-.12.26-.38.74-.66,1.2-1.16,2.11l-4.46,8-16.16,28.79-.18-.32,64.4-.05h22.28l-.22.38-22.06-39.56.18.1-30.75-.09-8.49-.06-2.22,0Z" style="fill:#263238"></path><rect x="677.28" y="311.9" width="13.95" height="35.71" style="fill:#fff"></rect><rect x="677.28" y="333.68" width="13.95" height="13.92" style="fill:#66371B"></rect><path d="M691.24,347.6a6.87,6.87,0,0,1,0-.71q0-.75,0-2c0-1.79,0-4.31-.07-7.46,0-6.36-.07-15.24-.12-25.52l.25.25h-14c.51-.52.14-.14.25-.25h0v10.22c0,3.3,0,6.49,0,9.51,0,6,0,11.45-.06,16l-.18-.18,10.18.1,2.78.05.74,0h.26s-.07,0-.23,0l-.7,0-2.74.05-10.29.1h-.18v-.19c0-4.5,0-9.91-.05-16,0-3,0-6.21,0-9.51v-5c0-.86,0-1.72,0-2.59v-2.59h0c.12-.12-.26.25.27-.27h14.2v.25c0,10.35-.09,19.29-.12,25.69,0,3.13,0,5.63-.07,7.4,0,.82,0,1.47,0,2A4.79,4.79,0,0,1,691.24,347.6Z" style="fill:#263238"></path><path d="M689,322.75a44,44,0,0,1-9.55,0,44,44,0,0,1,9.55,0Z" style="fill:#263238"></path><path d="M689,325.23a44,44,0,0,1-9.55,0,44,44,0,0,1,9.55,0Z" style="fill:#263238"></path><path d="M689,327.72a44,44,0,0,1-9.55,0,42.36,42.36,0,0,1,9.55,0Z" style="fill:#263238"></path><path d="M684.77,330.2a7.22,7.22,0,0,1-2.68.26,7.14,7.14,0,0,1-2.67-.26,7.14,7.14,0,0,1,2.67-.26A7.22,7.22,0,0,1,684.77,330.2Z" style="fill:#263238"></path><path d="M685.11,343.2v.85h-.92v-.82a4.16,4.16,0,0,1-1.94-.59l.5-1.11a3.43,3.43,0,0,0,1.77.52c.63,0,.87-.17.87-.43,0-.85-3-.23-3-2.22,0-.85.61-1.56,1.85-1.71v-.84h.92v.82a3.8,3.8,0,0,1,1.55.45l-.46,1.13a3.14,3.14,0,0,0-1.49-.41c-.63,0-.86.21-.86.48,0,.82,3,.21,3,2.18C686.89,342.31,686.3,343,685.11,343.2Z" style="fill:#fff"></path><path d="M684.19,300a67.87,67.87,0,0,1,0,11.87,67.87,67.87,0,0,1,0-11.87Z" style="fill:#263238"></path><rect x="679.75" y="317.24" width="5.71" height="1.97" style="fill:#263238"></rect><path d="M719.83,394.88c0,.14-27.7.26-61.87.26s-61.88-.12-61.88-.26,27.7-.26,61.88-.26S719.83,394.74,719.83,394.88Z" style="fill:#263238"></path><rect x="705.91" y="393.3" width="12.26" height="31.38" style="fill:#fff"></rect><rect x="705.91" y="412.44" width="12.26" height="12.23" style="fill:#66371B"></rect><path d="M718.17,424.67a5.4,5.4,0,0,1,0-.63c0-.45,0-1,0-1.77,0-1.58,0-3.8-.07-6.56,0-5.59-.07-13.39-.12-22.41l.25.25H705.91c.52-.53.15-.14.26-.26h0v9c0,2.9,0,5.7,0,8.36,0,5.3,0,10-.06,14l-.18-.18,8.93.1,2.45,0,.65,0,.23,0a5.65,5.65,0,0,1-.81,0l-2.41,0-9,.1h-.18v-.18c0-4,0-8.71-.06-14,0-2.66,0-5.46,0-8.36,0-1.46,0-2.94,0-4.44v-4.55h0l.26-.26h12.52v.25c0,9.09-.08,16.94-.11,22.58,0,2.74-.06,4.94-.07,6.5,0,.72,0,1.29,0,1.72A2.09,2.09,0,0,1,718.17,424.67Z" style="fill:#263238"></path><path d="M716.18,402.83a34,34,0,0,1-8.39,0,34,34,0,0,1,8.39,0Z" style="fill:#263238"></path><path d="M716.18,405a34,34,0,0,1-8.39,0,34,34,0,0,1,8.39,0Z" style="fill:#263238"></path><path d="M716.18,407.19a32.72,32.72,0,0,1-8.39,0,34,34,0,0,1,8.39,0Z" style="fill:#263238"></path><path d="M712.49,409.38a10.75,10.75,0,0,1-4.7,0,10.75,10.75,0,0,1,4.7,0Z" style="fill:#263238"></path><path d="M712.79,420.8v.74H712v-.72a3.52,3.52,0,0,1-1.7-.51l.44-1a2.88,2.88,0,0,0,1.55.46c.55,0,.77-.15.77-.38,0-.75-2.68-.2-2.68-2,0-.74.53-1.37,1.62-1.5v-.74h.81V416a3.23,3.23,0,0,1,1.36.39l-.41,1a2.78,2.78,0,0,0-1.3-.36c-.56,0-.76.19-.76.42,0,.72,2.67.18,2.67,1.92C714.35,420,713.84,420.64,712.79,420.8Z" style="fill:#fff"></path><path d="M712,383.77a43.79,43.79,0,0,1,0,9.53,43.79,43.79,0,0,1,0-9.53Z" style="fill:#263238"></path><rect x="708.08" y="397.99" width="5.02" height="1.73" style="fill:#263238"></rect></g><g id="freepik--Armchair--inject-3"><polygon points="361.43 382.87 334.95 433.33 339.05 433.33 372.12 387.24 361.43 382.87" style="fill:#263238"></polygon><polygon points="402.76 386.49 393.87 433.13 397.97 433.13 414.54 386.49 402.76 386.49" style="fill:#263238"></polygon><path d="M396.33,355.85l94.18-16.27A7.44,7.44,0,0,1,499,345h0L398.05,362.48Z" style="fill:#263238"></path><polygon points="469.31 350.17 501.43 433.69 507.32 433.69 481.23 348.11 469.31 350.17" style="fill:#263238"></polygon><path d="M316.16,269.44a7.76,7.76,0,0,0-3.59,9.58c7.15,18.86,28.89,75.83,37.53,98.47A14.78,14.78,0,0,0,363.78,387c17.71.18,54.18.48,71.83.11a10.44,10.44,0,0,0,10.23-10.44h0a10.45,10.45,0,0,0-11.25-10.41L376.66,371a13.49,13.49,0,0,1-13.6-8.39L327,273.2a7.76,7.76,0,0,0-10.79-3.76Z" style="fill:#66371B"></path><path d="M436,366.27h61.89a8.61,8.61,0,0,1,8.61,8.61v3.8a8.61,8.61,0,0,1-8.61,8.61H436a0,0,0,0,1,0,0v-21a0,0,0,0,1,0,0Z" style="fill:#66371B"></path><path d="M318.78,268.52h60.33a7.53,7.53,0,0,1,6.85,4.42l42.44,93.84L379,377.7l-19.55-6.63Z" style="fill:#66371B"></path><g style="opacity:0.30000000000000004"><path d="M316.16,269.44a7.76,7.76,0,0,0-3.59,9.58c7.15,18.86,28.89,75.83,37.53,98.47A14.78,14.78,0,0,0,363.78,387c17.71.18,54.18.48,71.83.11a10.44,10.44,0,0,0,10.23-10.44h0a10.45,10.45,0,0,0-11.25-10.41L376.66,371a13.49,13.49,0,0,1-13.6-8.39L327,273.2a7.76,7.76,0,0,0-10.79-3.76Z"></path></g><path d="M336.81,355.85,431,339.58a7.45,7.45,0,0,1,8.47,5.46h0L338.53,362.48Z" style="fill:#263238"></path><polygon points="409.79 350.17 441.91 433.69 447.8 433.69 421.71 348.11 409.79 350.17" style="fill:#263238"></polygon><rect x="374.33" y="363.55" width="13.95" height="35.71" style="fill:#fff"></rect><rect x="374.33" y="385.33" width="13.95" height="13.92" style="fill:#66371B"></rect><path d="M388.28,399.26s0-.26,0-.72,0-1.17,0-2c0-1.78,0-4.31-.07-7.46,0-6.36-.07-15.24-.12-25.52l.25.25H374.33c.52-.52.15-.14.26-.25h0v10.22c0,3.3,0,6.49,0,9.51,0,6,0,11.45-.06,16l-.18-.19,10.17.1,2.79.05.73,0a.76.76,0,0,1,.26,0h-.22l-.7,0-2.75,0-10.28.1h-.18v-.18c0-4.51,0-9.92-.06-16,0-3,0-6.21,0-9.51,0-1.65,0-3.34,0-5v-5.18h0c.12-.12-.26.25.26-.27h14.21v.25c0,10.35-.08,19.29-.11,25.69,0,3.13-.06,5.63-.07,7.4,0,.82,0,1.48,0,2A2.91,2.91,0,0,1,388.28,399.26Z" style="fill:#263238"></path><path d="M386,374.4a44.07,44.07,0,0,1-9.56,0,44.07,44.07,0,0,1,9.56,0Z" style="fill:#263238"></path><path d="M386,376.88a44.07,44.07,0,0,1-9.56,0,44.07,44.07,0,0,1,9.56,0Z" style="fill:#263238"></path><path d="M386,379.37a44.07,44.07,0,0,1-9.56,0,42.45,42.45,0,0,1,9.56,0Z" style="fill:#263238"></path><path d="M381.81,381.85a7.14,7.14,0,0,1-2.67.26,7.22,7.22,0,0,1-2.68-.26,7.22,7.22,0,0,1,2.68-.26A7.14,7.14,0,0,1,381.81,381.85Z" style="fill:#263238"></path><path d="M382.16,394.85v.85h-.92v-.82a4.12,4.12,0,0,1-1.94-.59l.5-1.11a3.37,3.37,0,0,0,1.77.52c.62,0,.87-.17.87-.43,0-.85-3.05-.23-3.05-2.22,0-.85.61-1.56,1.85-1.71v-.84h.92v.82a3.84,3.84,0,0,1,1.55.45l-.47,1.13a3.22,3.22,0,0,0-1.48-.41c-.64,0-.87.21-.87.48,0,.82,3,.21,3,2.18C383.93,394,383.35,394.67,382.16,394.85Z" style="fill:#fff"></path><path d="M381.24,351.68a67.87,67.87,0,0,1,0,11.87,67.87,67.87,0,0,1,0-11.87Z" style="fill:#263238"></path><rect x="376.79" y="368.89" width="5.71" height="1.97" style="fill:#263238"></rect></g><g id="freepik--Dresser--inject-3"><polygon points="125.12 433.56 141.56 396.84 151.69 396.84 127.99 433.56 125.12 433.56" style="fill:#263238"></polygon><path d="M289,316.45c-2.31-11.67-8.67-14.85-17.34-18.9s-4.91-13.29-4.91-13.29h-5.06s3.76,9.25-4.91,13.29-15,7.23-17.34,18.9,3.76,27.31,3.76,27.31l21-.26,21,.26S291.33,328.12,289,316.45Z" style="fill:#66371B"></path><path d="M225.41,286.84h79.16l-20-46H242.69Z" style="fill:#e0e0e0"></path><polygon points="334.68 397.46 130.46 397.46 110.42 397.46 110.42 343.76 334.68 343.76 334.68 397.46" style="fill:#455a64"></polygon><path d="M331.48,393.59s0-.29,0-.83,0-1.36,0-2.4c0-2.12,0-5.21-.05-9.18,0-8-.06-19.45-.1-33.65l.19.19-107.81.07h0l.26-.26c0,16.16,0,31.73,0,46.06l-.25-.25,77.31.12,22.41.07,6,0h1.56l.54,0H331l-1.53,0-5.95,0-22.35.07-77.48.12h-.25v-.25c0-14.33,0-29.9,0-46.06v-.26h.27l107.81.08h.18v.18c0,14.24-.07,25.77-.1,33.76,0,4,0,7,0,9.14,0,1,0,1.82,0,2.37S331.48,393.59,331.48,393.59Z" style="fill:#263238"></path><path d="M281.47,370.42a3.39,3.39,0,1,1-3.39-3.4A3.39,3.39,0,0,1,281.47,370.42Z" style="fill:#e0e0e0"></path><path d="M221.87,393.59s0-.29,0-.83,0-1.36,0-2.4c0-2.12,0-5.21,0-9.18,0-8-.06-19.45-.1-33.65l.18.19-107.81.07h0l.26-.26c0,16.16,0,31.73,0,46.06l-.24-.25,77.31.12,22.41.07,6,0h1.56l.53,0h-.5l-1.53,0-6,0-22.35.07-77.48.12h-.25v-.25c0-14.33,0-29.9,0-46.06v-.26h.26l107.81.08h.19v.18c0,14.24-.08,25.77-.1,33.76,0,4,0,7-.05,9.14,0,1,0,1.82,0,2.37S221.87,393.59,221.87,393.59Z" style="fill:#263238"></path><path d="M171.87,370.42a3.4,3.4,0,1,1-3.39-3.4A3.39,3.39,0,0,1,171.87,370.42Z" style="fill:#e0e0e0"></path><polygon points="145.45 340.76 145.45 334.06 155.02 334.06 155.02 341.33 145.45 340.76" style="fill:#e0e0e0"></polygon><path d="M161.15,309.17V342.1h17.42V309.17Z" style="fill:#e0e0e0"></path><rect x="184.12" y="319.89" width="11.87" height="20.68" style="fill:#e0e0e0"></rect><polygon points="133.38 339.8 136.64 344.39 207.67 344.39 210.35 339.8 133.38 339.8" style="fill:#263238"></polygon><rect x="269.29" y="250" width="13.16" height="33.67" style="fill:#fff"></rect><rect x="269.29" y="270.54" width="13.16" height="13.13" style="fill:#66371B"></rect><path d="M282.45,283.67a6.33,6.33,0,0,1,0-.68c0-.47,0-1.1,0-1.9,0-1.68,0-4.06-.07-7,0-6-.07-14.37-.12-24.06l.25.25H269.29c.52-.52.15-.14.26-.25h0v9.63c0,3.11,0,6.11,0,9,0,5.69,0,10.79-.06,15l-.18-.18,9.59.1,2.63,0,.69,0,.25,0s-.29,0-.87,0l-2.59,0-9.7.1h-.18v-.18c0-4.25,0-9.35-.06-15,0-2.86,0-5.86,0-9,0-1.56,0-3.15,0-4.76V250h0c.12-.12-.26.25.26-.27H282.7V250c-.05,9.75-.09,18.19-.12,24.23,0,2.94-.05,5.3-.07,7,0,.77,0,1.38,0,1.84A4.52,4.52,0,0,1,282.45,283.67Z" style="fill:#263238"></path><path d="M280.31,260.23a39.16,39.16,0,0,1-9,0,39.16,39.16,0,0,1,9,0Z" style="fill:#263238"></path><path d="M280.31,262.57a39.16,39.16,0,0,1-9,0,39.16,39.16,0,0,1,9,0Z" style="fill:#263238"></path><path d="M280.31,264.91a39.16,39.16,0,0,1-9,0,39.16,39.16,0,0,1,9,0Z" style="fill:#263238"></path><path d="M276.35,267.26a12.39,12.39,0,0,1-5.05,0,12.39,12.39,0,0,1,5.05,0Z" style="fill:#263238"></path><path d="M276.67,279.51v.8h-.87v-.77A3.88,3.88,0,0,1,274,279l.47-1.06a3.18,3.18,0,0,0,1.67.5c.59,0,.82-.16.82-.41,0-.8-2.87-.21-2.87-2.09,0-.79.57-1.47,1.74-1.61v-.79h.87v.78a3.41,3.41,0,0,1,1.46.42l-.44,1.06a3,3,0,0,0-1.4-.39c-.6,0-.81.2-.81.46,0,.77,2.86.19,2.86,2.05C278.34,278.68,277.79,279.34,276.67,279.51Z" style="fill:#fff"></path><path d="M275.81,238.81a30.63,30.63,0,0,1,.26,5.59,30.79,30.79,0,0,1-.26,5.6,29.75,29.75,0,0,1-.26-5.6A29.59,29.59,0,0,1,275.81,238.81Z" style="fill:#263238"></path><rect x="271.61" y="255.03" width="5.39" height="1.86" style="fill:#263238"></rect><polygon points="303.03 397.46 324.63 433.8 327.11 433.8 310.87 397.46 303.03 397.46" style="fill:#263238"></polygon><rect x="308.49" y="354.64" width="13.16" height="33.67" style="fill:#fff"></rect><rect x="308.49" y="375.18" width="13.16" height="13.13" style="fill:#66371B"></rect><path d="M321.65,388.31a6.56,6.56,0,0,1,0-.68c0-.47,0-1.1,0-1.9,0-1.69,0-4.06-.07-7,0-6-.07-14.38-.12-24.06l.25.25H308.49l.26-.26h0v9.64c0,3.12,0,6.12,0,9,0,5.7,0,10.8-.06,15.05l-.18-.18,9.59.09,2.63,0,.69,0a.77.77,0,0,1,.25,0s-.29,0-.87,0l-2.59.05-9.7.1h-.18v-.18c0-4.25,0-9.35-.06-15.05,0-2.85,0-5.85,0-9,0-1.55,0-3.14,0-4.75v-4.89h0l.26-.26H321.9v.25c0,9.75-.09,18.18-.12,24.23,0,2.94,0,5.3-.07,7,0,.78,0,1.39,0,1.85A4.52,4.52,0,0,1,321.65,388.31Z" style="fill:#263238"></path><path d="M319.51,364.87a39.16,39.16,0,0,1-9,0,37.72,37.72,0,0,1,9,0Z" style="fill:#263238"></path><path d="M319.51,367.21a39.16,39.16,0,0,1-9,0,39.16,39.16,0,0,1,9,0Z" style="fill:#263238"></path><path d="M319.51,369.55a39.16,39.16,0,0,1-9,0,39.16,39.16,0,0,1,9,0Z" style="fill:#263238"></path><path d="M315.55,371.89a12.39,12.39,0,0,1-5.05,0,12.39,12.39,0,0,1,5.05,0Z" style="fill:#263238"></path><path d="M315.87,384.15v.8H315v-.77a3.88,3.88,0,0,1-1.83-.55l.47-1.06a3.18,3.18,0,0,0,1.67.5c.59,0,.82-.16.82-.41,0-.8-2.87-.22-2.87-2.09,0-.8.57-1.47,1.74-1.61v-.8h.87v.78a3.56,3.56,0,0,1,1.46.43l-.44,1.06a3,3,0,0,0-1.4-.39c-.6,0-.81.2-.81.46,0,.77,2.86.19,2.86,2.05C317.54,383.32,317,384,315.87,384.15Z" style="fill:#fff"></path><path d="M315,343.45a60.33,60.33,0,0,1,0,11.19,60.33,60.33,0,0,1,0-11.19Z" style="fill:#263238"></path><rect x="310.81" y="359.67" width="5.39" height="1.86" style="fill:#263238"></rect></g><g id="freepik--Lamp--inject-3"><polygon points="101.24 326.93 69.82 326.93 41.46 326.93 41.46 140.29 101.24 140.29 101.24 326.93" style="fill:#ebebeb"></polygon><path d="M101.24,326.93s0-.32,0-.93,0-1.53,0-2.72c0-2.39,0-5.91,0-10.47,0-9.13,0-22.4-.07-39,0-33.22-.07-79.85-.12-133.49l.25.25H41.46l.26-.26c0,75.06-.07,142.26-.09,186.64l-.17-.17,43.95.08,11.75.05,3,0,1,0-1,0-3,0-11.74,0-44,.09h-.17v-.17c0-44.38-.06-111.58-.09-186.64V140h60.29v.25c0,53.71-.08,100.4-.11,133.67,0,16.6-.06,29.85-.07,39,0,4.54,0,8,0,10.42,0,1.18,0,2.08,0,2.69S101.24,326.93,101.24,326.93Z" style="fill:#263238"></path><rect x="69.82" y="326.93" width="3.77" height="17.93" style="fill:#455a64"></rect><polygon points="28.17 433.56 68.01 341.96 71.35 341.96 29.88 433.56 28.17 433.56" style="fill:#455a64"></polygon><polygon points="114.89 433.56 75.05 341.96 71.71 341.96 113.18 433.56 114.89 433.56" style="fill:#455a64"></polygon><polygon points="69.82 339.19 69.82 433.56 71.71 433.56 73.59 338.12 69.82 339.19" style="fill:#455a64"></polygon><polyline points="101.6 323.55 71.35 229.69 41.82 327.47" style="fill:#e0e0e0"></polyline><path d="M41.82,327.47s0-.17.12-.5l.42-1.47L44,319.89c1.46-4.89,3.55-11.93,6.14-20.62,5.24-17.41,12.47-41.43,20.45-68,.17-.58.35-1.16.51-1.7l.24-.8.26.8c8.35,26,15.88,49.47,21.34,66.46,2.69,8.48,4.87,15.33,6.39,20.1.73,2.35,1.31,4.19,1.71,5.46.18.61.33,1.09.43,1.43s.13.49.13.49-.07-.16-.18-.48l-.48-1.41c-.42-1.26-1-3.09-1.8-5.43-1.56-4.75-3.79-11.59-6.55-20.05L71.1,229.77h.5l-.51,1.7-20.6,67.92c-2.65,8.67-4.8,15.69-6.3,20.57-.74,2.41-1.33,4.28-1.73,5.58-.2.62-.36,1.1-.47,1.45S41.82,327.47,41.82,327.47Z" style="fill:#263238"></path><path d="M101.24,140.29a4.33,4.33,0,0,1-.13.47c-.1.33-.24.78-.43,1.36-.39,1.22-1,3-1.69,5.23-1.5,4.55-3.66,11.1-6.33,19.18L71.6,229.77c-1,0-.28,0-.51,0v0l0-.07,0-.14-.1-.29-.19-.58-.39-1.15c-.25-.77-.51-1.53-.76-2.3l-1.52-4.54c-1-3-2-6-3-8.88L59.49,195c-3.56-10.7-6.76-20.34-9.45-28.44s-4.83-14.63-6.33-19.18c-.73-2.25-1.3-4-1.69-5.23-.19-.58-.33-1-.43-1.36a4.33,4.33,0,0,1-.13-.47s.07.15.18.45.27.77.48,1.35c.41,1.21,1,2.95,1.78,5.19,1.54,4.54,3.75,11.07,6.49,19.13l9.55,28.4c1.79,5.35,3.68,11,5.63,16.78l3,8.88L70.06,225c.25.76.51,1.52.77,2.29l.38,1.15.19.58.1.29,0,.14,0,.08,0,0c-.22,0,.5,0-.49,0,8.28-24.66,15.78-47,21.21-63.18,2.73-8.07,5-14.6,6.49-19.14.77-2.23,1.37-4,1.78-5.19.21-.58.37-1,.48-1.35S101.24,140.29,101.24,140.29Z" style="fill:#263238"></path><rect x="80.14" y="151.32" width="13.16" height="33.67" style="fill:#fff"></rect><rect x="80.14" y="171.86" width="13.16" height="13.13" style="fill:#66371B"></rect><path d="M93.3,185a6.33,6.33,0,0,1,0-.68c0-.47,0-1.1,0-1.9,0-1.68,0-4.06-.07-7,0-6-.07-14.37-.11-24.06l.25.25H80.14c.52-.52.14-.14.26-.25h0V161c0,3.11,0,6.11,0,9,0,5.69,0,10.79-.06,15l-.18-.18,9.59.1,2.63,0,.69,0,.25,0s-.29,0-.88,0l-2.58,0-9.7.1H80V185c0-4.25,0-9.35-.06-15,0-2.86,0-5.86,0-9v-9.64h0c.12-.12-.26.25.26-.27H93.55v.25c0,9.75-.09,18.19-.12,24.23,0,2.94-.05,5.3-.07,7,0,.77,0,1.38,0,1.84A4.52,4.52,0,0,1,93.3,185Z" style="fill:#263238"></path><path d="M91.16,161.55a20,20,0,0,1-4.51.26,20,20,0,0,1-4.5-.26,19.31,19.31,0,0,1,4.5-.26A19.36,19.36,0,0,1,91.16,161.55Z" style="fill:#263238"></path><path d="M91.16,163.89a20,20,0,0,1-4.51.26,20,20,0,0,1-4.5-.26,20,20,0,0,1,4.5-.26A20,20,0,0,1,91.16,163.89Z" style="fill:#263238"></path><path d="M91.16,166.23a19.36,19.36,0,0,1-4.51.26,19.31,19.31,0,0,1-4.5-.26,20,20,0,0,1,4.5-.26A20,20,0,0,1,91.16,166.23Z" style="fill:#263238"></path><path d="M87.2,168.58a6.45,6.45,0,0,1-2.53.26,6.42,6.42,0,0,1-2.52-.26,6.2,6.2,0,0,1,2.52-.26A6.24,6.24,0,0,1,87.2,168.58Z" style="fill:#263238"></path><path d="M87.52,180.83v.8h-.87v-.77a3.88,3.88,0,0,1-1.83-.55l.47-1.05a3.24,3.24,0,0,0,1.67.5c.59,0,.82-.17.82-.42,0-.8-2.87-.21-2.87-2.09,0-.79.57-1.46,1.74-1.61v-.79h.87v.78a3.41,3.41,0,0,1,1.46.42l-.44,1.06a3,3,0,0,0-1.4-.39c-.6,0-.82.21-.82.46,0,.77,2.87.19,2.87,2.06C89.19,180,88.64,180.66,87.52,180.83Z" style="fill:#fff"></path><path d="M86.65,140.13a29.59,29.59,0,0,1,.26,5.59,29.75,29.75,0,0,1-.26,5.6,30.79,30.79,0,0,1-.26-5.6A30.63,30.63,0,0,1,86.65,140.13Z" style="fill:#263238"></path><rect x="82.46" y="156.35" width="5.39" height="1.86" style="fill:#263238"></rect></g><g id="freepik--speech-bubble--inject-3"><path d="M561.85,100.1A19.41,19.41,0,0,0,547.57,133l-.82,5.45,5.75-1.75a19.41,19.41,0,1,0,9.35-36.57Z" style="fill:#fff"></path><path d="M561.85,100.1h.33l1,0,.71,0,.85.13,1,.15,1.11.28a19.79,19.79,0,0,1,2.55.87,21.28,21.28,0,0,1,2.83,1.51,19.79,19.79,0,0,1,5.59,5.42,19.46,19.46,0,0,1,3.27,8.83,22.36,22.36,0,0,1,.13,2.61,20.55,20.55,0,0,1-.25,2.68,19.63,19.63,0,0,1-9.81,14,20.55,20.55,0,0,1-6,2.18l-1.62.22c-.54.07-1.09,0-1.64.08a15.92,15.92,0,0,1-3.3-.21,19.39,19.39,0,0,1-6.19-2.06l.19,0-5.74,1.75-.39.12.06-.4q.42-2.79.83-5.44l.06.21a19.56,19.56,0,0,1-5.45-12.79c0-.37,0-.74,0-1.1s.05-.72.07-1.08,0-.71.08-1.07l.18-1a19.42,19.42,0,0,1,2.89-7.24,19.84,19.84,0,0,1,4.58-4.89,19,19,0,0,1,8.72-3.66l1.46-.18,1.08,0h.65l.22,0-.22,0-.65,0-1.07.06-1.44.21a19.43,19.43,0,0,0-8.56,3.75,19.73,19.73,0,0,0-4.45,4.84,19.1,19.1,0,0,0-2.79,7.12c0,.34-.11.68-.17,1s0,.69-.07,1l-.06,1.06c0,.35,0,.71,0,1.07a19,19,0,0,0,.7,4.36,19.4,19.4,0,0,0,4.66,8.1l.09.09,0,.12q-.41,2.66-.82,5.45l-.32-.28,5.74-1.76.1,0,.1.05a19.38,19.38,0,0,0,6,2,16.49,16.49,0,0,0,3.21.2c.54,0,1.07,0,1.6-.08l1.58-.21a20.12,20.12,0,0,0,5.83-2.11,18.46,18.46,0,0,0,4.71-3.7,18.08,18.08,0,0,0,3.25-4.75,18.29,18.29,0,0,0,1.64-5.22,19.42,19.42,0,0,0,.27-2.61,23.68,23.68,0,0,0-.12-2.55,19,19,0,0,0-3.15-8.67,19.5,19.5,0,0,0-5.44-5.38,22.3,22.3,0,0,0-2.76-1.54,22,22,0,0,0-2.51-.89A27.58,27.58,0,0,0,561.85,100.1Z" style="fill:#263238"></path><path d="M553.48,118.5a5,5,0,0,1,1.12-2.8A4.82,4.82,0,0,1,557,114a3.91,3.91,0,0,1,4.4,1.73,3.81,3.81,0,0,1,1.07-1.32,4,4,0,0,1,3-.79,4.84,4.84,0,0,1,2.61,1.39,5,5,0,0,1,1.45,2.64,6.07,6.07,0,0,1-.52,3.8,8.59,8.59,0,0,1-2.79,3c-1.87,1.3-4.34,2.92-4.34,2.92s-2.26-1.48-4.27-2.53a8.63,8.63,0,0,1-3.15-2.59A6.15,6.15,0,0,1,553.48,118.5Z" style="fill:#66371B"></path></g></svg>