<svg xmlns="http://www.w3.org/2000/svg" viewBox="0 0 500 500"><g id="freepik--background-complete--inject-5"><rect x="43.46" y="54.12" width="103.26" height="135.94" style="fill:#ebebeb"></rect><rect x="57.9" y="68.57" width="74.37" height="107.05" style="fill:#fff"></rect><path d="M53.33,61.43a2.8,2.8,0,1,1-2.8-2.8A2.8,2.8,0,0,1,53.33,61.43Z" style="fill:#fff"></path><path d="M67.94,61.43a2.8,2.8,0,1,1-2.8-2.8A2.8,2.8,0,0,1,67.94,61.43Z" style="fill:#fff"></path><path d="M82.55,61.43a2.8,2.8,0,1,1-2.79-2.8A2.8,2.8,0,0,1,82.55,61.43Z" style="fill:#fff"></path><path d="M97.16,61.43a2.8,2.8,0,1,1-2.79-2.8A2.8,2.8,0,0,1,97.16,61.43Z" style="fill:#fff"></path><path d="M111.78,61.43a2.8,2.8,0,1,1-2.8-2.8A2.81,2.81,0,0,1,111.78,61.43Z" style="fill:#fff"></path><path d="M126.39,61.43a2.8,2.8,0,1,1-2.8-2.8A2.8,2.8,0,0,1,126.39,61.43Z" style="fill:#fff"></path><circle cx="65.14" cy="182.75" r="2.8" style="fill:#fff"></circle><circle cx="79.76" cy="182.75" r="2.8" style="fill:#fff"></circle><path d="M97.16,182.75a2.8,2.8,0,1,1-2.79-2.8A2.79,2.79,0,0,1,97.16,182.75Z" style="fill:#fff"></path><path d="M111.78,182.75A2.8,2.8,0,1,1,109,180,2.8,2.8,0,0,1,111.78,182.75Z" style="fill:#fff"></path><path d="M126.39,182.75a2.8,2.8,0,1,1-2.8-2.8A2.8,2.8,0,0,1,126.39,182.75Z" style="fill:#fff"></path><circle cx="50.53" cy="76.59" r="2.8" style="fill:#fff"></circle><circle cx="50.53" cy="91.76" r="2.8" style="fill:#fff"></circle><circle cx="50.53" cy="106.92" r="2.8" style="fill:#fff"></circle><circle cx="50.53" cy="122.09" r="2.8" style="fill:#fff"></circle><circle cx="50.53" cy="137.25" r="2.8" style="fill:#fff"></circle><path d="M53.33,152.42a2.8,2.8,0,1,1-2.8-2.8A2.8,2.8,0,0,1,53.33,152.42Z" style="fill:#fff"></path><path d="M53.33,167.59a2.8,2.8,0,1,1-2.8-2.8A2.79,2.79,0,0,1,53.33,167.59Z" style="fill:#fff"></path><circle cx="50.53" cy="182.75" r="2.8" style="fill:#fff"></circle><path d="M142.43,61.43a2.8,2.8,0,1,1-2.79-2.8A2.8,2.8,0,0,1,142.43,61.43Z" style="fill:#fff"></path><circle cx="139.64" cy="76.59" r="2.8" style="fill:#fff"></circle><circle cx="139.64" cy="91.76" r="2.8" style="fill:#fff"></circle><circle cx="139.64" cy="106.92" r="2.8" style="fill:#fff"></circle><circle cx="139.64" cy="122.09" r="2.8" style="fill:#fff"></circle><circle cx="139.64" cy="137.25" r="2.8" style="fill:#fff"></circle><path d="M142.43,152.42a2.8,2.8,0,1,1-2.79-2.8A2.79,2.79,0,0,1,142.43,152.42Z" style="fill:#fff"></path><path d="M142.43,167.59a2.8,2.8,0,1,1-2.79-2.8A2.79,2.79,0,0,1,142.43,167.59Z" style="fill:#fff"></path><circle cx="139.64" cy="182.75" r="2.8" style="fill:#fff"></circle><g style="opacity:0.2"><polygon points="132.26 68.57 132.26 78.07 57.9 152.45 57.9 125.63 114.96 68.57 132.26 68.57" style="fill:#ebebeb"></polygon><polygon points="132.26 158.83 132.26 175.61 115.49 175.61 132.26 158.83" style="fill:#ebebeb"></polygon><polygon points="132.26 84.84 132.26 98.25 57.9 172.63 57.9 159.22 132.26 84.84" style="fill:#ebebeb"></polygon><polygon points="84.72 68.57 57.9 95.39 57.9 91.58 80.91 68.57 84.72 68.57" style="fill:#ebebeb"></polygon></g><rect x="46.11" y="334.62" width="26.48" height="11.19" style="fill:#ebebeb"></rect><rect x="31.34" y="348.73" width="26.48" height="11.19" style="fill:#ebebeb"></rect><rect x="258.21" y="150.47" width="26.48" height="11.19" style="fill:#ebebeb"></rect><rect x="243.44" y="164.58" width="26.48" height="11.19" style="fill:#ebebeb"></rect><rect x="228.73" y="150.47" width="26.48" height="11.19" style="fill:#ebebeb"></rect><rect x="442.18" y="348.73" width="26.48" height="11.19" style="fill:#ebebeb"></rect><rect x="427.41" y="33.33" width="26.48" height="11.19" style="fill:#ebebeb"></rect><rect x="442.18" y="47.44" width="26.48" height="11.19" style="fill:#ebebeb"></rect><rect x="46.11" y="33.33" width="26.48" height="11.19" style="fill:#ebebeb"></rect></g><g id="freepik--Shadow--inject-5"><ellipse cx="250" cy="455.49" rx="178.16" ry="20.12" style="fill:#ebebeb"></ellipse></g><g id="freepik--Closet--inject-5"><rect x="180.81" y="54.12" width="276.59" height="353.37" style="fill:#dbdbdb"></rect><rect x="189.09" y="62.41" width="260.02" height="336.8" style="fill:#c7c7c7"></rect><rect x="189.09" y="140.9" width="260.02" height="8.29" style="fill:#dbdbdb"></rect><rect x="361.94" y="207.28" width="87.17" height="8.29" style="fill:#dbdbdb"></rect><rect x="361.94" y="272.41" width="87.17" height="8.29" style="fill:#dbdbdb"></rect><rect x="361.94" y="335.47" width="87.17" height="8.29" style="fill:#dbdbdb"></rect><rect x="232.79" y="270.05" width="250.02" height="8.29" transform="translate(631.99 -83.6) rotate(90)" style="fill:#dbdbdb"></rect><rect x="189.09" y="174.2" width="164.56" height="5.33" style="fill:#ebebeb"></rect><rect x="362.8" y="150.08" width="85.46" height="18.07" style="fill:#dbdbdb"></rect><rect x="362.8" y="169.23" width="85.46" height="18.07" style="fill:#dbdbdb"></rect><rect x="362.8" y="188.38" width="85.46" height="18.07" style="fill:#dbdbdb"></rect><rect x="396.64" y="157.04" width="17.76" height="4.16" style="fill:#a6a6a6"></rect><rect x="396.64" y="176.19" width="17.76" height="4.16" style="fill:#a6a6a6"></rect><rect x="396.64" y="195.33" width="17.76" height="4.16" style="fill:#a6a6a6"></rect><path d="M437.75,335.47H372a5.13,5.13,0,0,1-5.13-5.13h0A5.14,5.14,0,0,1,372,325.2h65.78a5.14,5.14,0,0,1,5.14,5.14h0A5.13,5.13,0,0,1,437.75,335.47Z" style="fill:#263238"></path><rect x="376.05" y="290.57" width="65.84" height="14.12" rx="6.61" style="fill:#263238"></rect><path d="M438.51,325.2H371.22a4.38,4.38,0,0,1-4.38-4.38h0a4.38,4.38,0,0,1,4.38-4.38h67.29a4.38,4.38,0,0,1,4.38,4.38h0A4.38,4.38,0,0,1,438.51,325.2Z" style="fill:#ebebeb"></path><path d="M434.18,290.57H379.35a4.38,4.38,0,0,1-4.38-4.38h0a4.38,4.38,0,0,1,4.38-4.38h54.83a4.38,4.38,0,0,1,4.38,4.38h0A4.38,4.38,0,0,1,434.18,290.57Z" style="fill:#fff"></path><path d="M436.53,316.44H373.2a2.93,2.93,0,0,1-2.94-2.94h0a2.94,2.94,0,0,1,2.94-2.94h63.33a2.94,2.94,0,0,1,2.94,2.94h0A2.94,2.94,0,0,1,436.53,316.44Z" style="fill:#7E3D19"></path><path d="M436.53,310.56H373.2a2.93,2.93,0,0,1-2.94-2.94h0a2.94,2.94,0,0,1,2.94-2.94h63.33a2.94,2.94,0,0,1,2.94,2.94h0A2.94,2.94,0,0,1,436.53,310.56Z" style="fill:#37474f"></path><rect x="371.89" y="258.68" width="75.91" height="13.72" rx="5.85" style="fill:#263238"></rect><path d="M442,258.68H377.74a5.85,5.85,0,0,1-5.85-5.85h0a5.85,5.85,0,0,1,5.85-5.85H442a5.85,5.85,0,0,1,5.85,5.85h0A5.85,5.85,0,0,1,442,258.68Z" style="fill:#7E3D19"></path><path d="M437,231.27H388a5.85,5.85,0,0,1-5.85-5.85h0a5.85,5.85,0,0,1,5.85-5.86h49a5.86,5.86,0,0,1,5.86,5.86h0A5.85,5.85,0,0,1,437,231.27Z" style="fill:#37474f"></path><path d="M440.46,247H379.23a3.93,3.93,0,0,1-3.93-3.93h0a3.93,3.93,0,0,1,3.93-3.93h61.23a3.92,3.92,0,0,1,3.92,3.93h0A3.92,3.92,0,0,1,440.46,247Z" style="fill:#455a64"></path><path d="M440.46,239.12H379.23a3.92,3.92,0,0,1-3.93-3.92h0a3.93,3.93,0,0,1,3.93-3.93h61.23a3.92,3.92,0,0,1,3.92,3.93h0A3.91,3.91,0,0,1,440.46,239.12Z" style="fill:#ebebeb"></path><path d="M385.72,140.32l47.73.57c12.9.16,11-10.18,8-21s-7.35-27.34-18.88-27.48l-12.39-.15-12.4-.15c-11.53-.14-16.31,16.22-19.53,27S372.82,140.16,385.72,140.32Z" style="fill:#7E3D19"></path><path d="M424.41,92.41a.48.48,0,0,1,.48.5.49.49,0,1,1-.48-.5Zm-8.64.39a.5.5,0,0,0,.49.5.5.5,0,1,0,0-1A.5.5,0,0,0,415.77,92.8Zm-8.14-.1a.5.5,0,0,0,.49.5.49.49,0,0,0,.5-.49.48.48,0,0,0-.49-.49A.49.49,0,0,0,407.63,92.7Zm-8.13-.1a.5.5,0,0,0,1,0,.49.49,0,0,0-.49-.5A.48.48,0,0,0,399.5,92.6Zm32.42,10.85a.49.49,0,1,0,.5-.48A.48.48,0,0,0,431.92,103.45Zm-8.14-.09a.5.5,0,0,0,1,0,.5.5,0,0,0-.49-.5A.49.49,0,0,0,423.78,103.36Zm-8.14-.1a.51.51,0,0,0,.49.5.5.5,0,0,0,.5-.49.49.49,0,0,0-.49-.5A.51.51,0,0,0,415.64,103.26Zm-8.13-.1a.49.49,0,1,0,.5-.49A.5.5,0,0,0,407.51,103.16Zm-8.14-.1a.5.5,0,0,0,.49.5.49.49,0,0,0,.5-.49.5.5,0,0,0-1,0Zm-8.13-.1a.49.49,0,1,0,.5-.48A.48.48,0,0,0,391.24,103ZM427.91,98a.49.49,0,0,0,.49.5.48.48,0,0,0,.5-.48.5.5,0,0,0-1,0Zm-8.13-.1a.49.49,0,1,0,.5-.48A.48.48,0,0,0,419.78,97.94Zm-8.14-.09a.5.5,0,0,0,1,0,.5.5,0,0,0-.49-.5A.49.49,0,0,0,411.64,97.85Zm-8.13-.1a.49.49,0,0,0,.48.5.5.5,0,0,0,.5-.49.49.49,0,1,0-1,0Zm-8.14-.1a.49.49,0,0,0,.49.5.5.5,0,0,0,0-1A.5.5,0,0,0,395.37,97.65Zm-8.07.15a.48.48,0,0,0,.42.25.49.49,0,0,0,.5-.48.5.5,0,0,0-.34-.48C387.68,97.32,387.49,97.55,387.3,97.8Zm44.49,16.11a.49.49,0,0,0,.49.5.5.5,0,0,0,.5-.49.49.49,0,0,0-.49-.49A.48.48,0,0,0,431.79,113.91Zm-8.14-.1a.49.49,0,0,0,.49.5.49.49,0,1,0,0-1A.49.49,0,0,0,423.65,113.81Zm-8.13-.09a.49.49,0,1,0,1,0,.48.48,0,0,0-.48-.5A.49.49,0,0,0,415.52,113.72Zm-8.14-.1a.51.51,0,0,0,.49.5.5.5,0,0,0,0-1A.51.51,0,0,0,407.38,113.62Zm-8.13-.1a.48.48,0,0,0,.48.5.5.5,0,1,0-.48-.5Zm-8.14-.1a.5.5,0,0,0,1,0,.51.51,0,0,0-.49-.5A.5.5,0,0,0,391.11,113.42Zm-8.14-.1a.49.49,0,0,0,.49.5.49.49,0,1,0-.49-.5Zm52.95-4.72a.5.5,0,0,0,1,0,.5.5,0,1,0-1,0Zm-8.13-.1a.49.49,0,1,0,1,0,.49.49,0,1,0-1,0Zm-8.14-.1a.5.5,0,1,0,.5-.48A.48.48,0,0,0,419.65,108.4Zm-8.13-.1a.48.48,0,0,0,.48.5.49.49,0,1,0,0-1A.48.48,0,0,0,411.52,108.3Zm-8.14-.09a.5.5,0,0,0,.49.5.51.51,0,0,0,.5-.49.5.5,0,0,0-.49-.5A.49.49,0,0,0,403.38,108.21Zm-8.14-.1a.51.51,0,0,0,.49.5.5.5,0,1,0,0-1A.51.51,0,0,0,395.24,108.11Zm-8.13-.1a.48.48,0,0,0,.48.5.5.5,0,1,0-.48-.5Zm52.69,16.46a.5.5,0,0,0,1,0,.5.5,0,1,0-1,0Zm-8.14-.1a.5.5,0,1,0,.5-.49A.51.51,0,0,0,431.66,124.37Zm-8.13-.1a.49.49,0,1,0,.5-.49A.49.49,0,0,0,423.53,124.27Zm-8.14-.1a.5.5,0,1,0,.5-.48A.49.49,0,0,0,415.39,124.17Zm-8.13-.09a.49.49,0,0,0,1,0,.49.49,0,1,0-1,0Zm-8.14-.1a.5.5,0,0,0,.49.5.51.51,0,0,0,.5-.49.5.5,0,0,0-.49-.5A.49.49,0,0,0,399.12,124Zm-8.14-.1a.51.51,0,0,0,.49.5.5.5,0,1,0,0-1A.51.51,0,0,0,391,123.88Zm-8.13-.1a.48.48,0,0,0,.48.5.5.5,0,1,0-.48-.5Zm52.95-4.72a.49.49,0,1,0,1,0,.49.49,0,1,0-1,0Zm-8.14-.1a.5.5,0,0,0,1,0,.5.5,0,1,0-1,0Zm-8.14-.1a.5.5,0,1,0,.5-.49A.51.51,0,0,0,419.52,118.86Zm-8.13-.1a.49.49,0,0,0,.49.5.48.48,0,0,0,.49-.49.48.48,0,0,0-.48-.49A.48.48,0,0,0,411.39,118.76Zm-8.14-.1a.49.49,0,0,0,.49.5.48.48,0,0,0,.5-.48.5.5,0,0,0-1,0Zm-8.13-.09a.49.49,0,0,0,1,0,.49.49,0,1,0-1,0Zm-8.14-.1a.5.5,0,0,0,1,0,.5.5,0,1,0-1,0Zm-8.14-.1a.51.51,0,0,0,.49.5.5.5,0,0,0,0-1A.51.51,0,0,0,378.84,118.37Zm60.83,16.56a.51.51,0,0,0,.49.5.5.5,0,0,0,.5-.49.49.49,0,0,0-.49-.5A.5.5,0,0,0,439.67,134.93Zm-8.13-.1a.49.49,0,1,0,1,0,.48.48,0,0,0-.48-.5A.49.49,0,0,0,431.54,134.83Zm-8.14-.1a.5.5,0,0,0,.49.5.5.5,0,1,0-.49-.5Zm-8.13-.1a.49.49,0,1,0,1,0,.49.49,0,1,0-1,0Zm-8.14-.1a.5.5,0,0,0,1,0,.49.49,0,0,0-.49-.5A.48.48,0,0,0,407.13,134.53Zm-8.14-.09a.49.49,0,0,0,.49.49.48.48,0,0,0,.5-.48.5.5,0,0,0-1,0Zm-8.13-.1a.49.49,0,1,0,1,0,.49.49,0,1,0-1,0Zm-8.14-.1a.5.5,0,1,0,1,0,.5.5,0,0,0-1,0Zm52.95-4.73a.5.5,0,1,0,.5-.48A.48.48,0,0,0,435.67,129.51Zm-8.14-.09a.51.51,0,0,0,.49.5.5.5,0,0,0,.5-.49.49.49,0,0,0-.49-.5A.5.5,0,0,0,427.53,129.42Zm-8.13-.1a.5.5,0,0,0,.49.5.49.49,0,0,0,.49-.49.48.48,0,0,0-.48-.5A.5.5,0,0,0,419.4,129.32Zm-8.14-.1a.5.5,0,1,0,1,0,.5.5,0,0,0-1,0Zm-8.13-.1a.49.49,0,1,0,1,0,.49.49,0,1,0-1,0ZM395,129a.5.5,0,1,0,.5-.48A.48.48,0,0,0,395,129Zm-8.14-.09a.49.49,0,0,0,.49.49.49.49,0,1,0,0-1A.49.49,0,0,0,386.85,128.93Zm-8.13-.1a.49.49,0,1,0,1,0,.49.49,0,1,0-1,0ZM435.54,140a.5.5,0,0,0,.49.5.49.49,0,0,0,.5-.49.48.48,0,0,0-.49-.49A.49.49,0,0,0,435.54,140Zm-8.13-.1a.49.49,0,0,0,.49.5.49.49,0,0,0,0-1A.48.48,0,0,0,427.41,139.87Zm-8.14-.09a.5.5,0,1,0,1,0,.5.5,0,0,0-1,0Zm-8.13-.1a.49.49,0,1,0,1,0,.48.48,0,0,0-.48-.5A.49.49,0,0,0,411.14,139.68Zm-8.14-.1a.49.49,0,0,0,.49.5.5.5,0,0,0,0-1A.5.5,0,0,0,403,139.58Zm-8.14-.1a.5.5,0,0,0,.49.5.49.49,0,0,0,.5-.49.5.5,0,0,0-.49-.5A.51.51,0,0,0,394.86,139.48Zm-8.13-.1a.49.49,0,1,0,.5-.48A.48.48,0,0,0,386.73,139.38Zm-7.54-.57a1.35,1.35,0,0,0,.26.15A.45.45,0,0,0,379.19,138.81Z" style="fill:#fff"></path><path d="M419.34,98a4,4,0,1,0,4-3.91A3.95,3.95,0,0,0,419.34,98Z" style="opacity:0.1"></path><path d="M393,97.7a4,4,0,1,0,4-3.91A4,4,0,0,0,393,97.7Z" style="opacity:0.1"></path><path d="M420.61,98a2.68,2.68,0,1,0,2.71-2.65A2.68,2.68,0,0,0,420.61,98Z" style="fill:#263238"></path><path d="M394.23,97.72a2.68,2.68,0,1,0,2.71-2.65A2.68,2.68,0,0,0,394.23,97.72Z" style="fill:#263238"></path><path d="M396.9,98.33a1.51,1.51,0,0,0,1.53-1.49,75.29,75.29,0,0,1,2.43-14.19c1.58-5.64,4.47-12.35,9.21-12.29,8.77.1,11.78,22.24,11.72,26.76a1.51,1.51,0,0,0,3,0c0-.3-1.47-29.66-14.7-29.82-12.82-.16-14.69,29.17-14.7,29.46A1.51,1.51,0,0,0,396.9,98.33Z" style="fill:#7E3D19"></path><path d="M246.59,186h-1v-5.89c0-.33.22-.46.71-.72,1.1-.61,4-2.21,4-5.11,0-4.55-3.24-4.91-4.23-4.91-2.49,0-5,1.5-5,4.85h-1c0-4,3.12-5.85,6-5.85,2.42,0,5.23,1.55,5.23,5.91,0,3.49-3.3,5.3-4.54,6l-.19.11Z" style="fill:#263238"></path><path d="M278.41,203.27h-2.17a3.57,3.57,0,0,0-1.46-2.8c-1.67-1.27-11.63-3.61-14.13-4.52s-10.06-4.33-11.42-4.93a9.76,9.76,0,0,0-6.46,0c-1.36.6-8.92,4-11.42,4.93s-12.46,3.25-14.12,4.52a3.54,3.54,0,0,0-1.46,2.8h-2.18c-1.3-1.42-1.33-3.2,1.06-5.08s11-4.6,14-5.83,12.79-7.89,14.27-8.3a14.82,14.82,0,0,1,6.22,0c1.48.41,11.27,7.08,14.27,8.3s11.59,4,14,5.83S279.71,201.85,278.41,203.27Z" style="fill:#7E3D19"></path><path d="M278.41,203.27h-2.17a3.57,3.57,0,0,0-1.46-2.8c-1.67-1.27-11.63-3.61-14.13-4.52s-10.06-4.33-11.42-4.93a9.76,9.76,0,0,0-6.46,0c-1.36.6-8.92,4-11.42,4.93s-12.46,3.25-14.12,4.52a3.54,3.54,0,0,0-1.46,2.8h-2.18c-1.3-1.42-1.33-3.2,1.06-5.08s11-4.6,14-5.83,12.79-7.89,14.27-8.3a14.82,14.82,0,0,1,6.22,0c1.48.41,11.27,7.08,14.27,8.3s11.59,4,14,5.83S279.71,201.85,278.41,203.27Z" style="opacity:0.2"></path><path d="M261.13,191.2s14.6,4.23,17.86,8.26c3.85,4.76,27.53,79.18,26.83,81.91a15,15,0,0,1-2.7,5.1l-13.4,2.91s-7.43-.52-8.65-3.23S261.13,191.2,261.13,191.2Z" style="fill:#37474f"></path><path d="M230.88,191.2s-14.61,4.23-17.87,8.26c-3.84,4.76-27.53,79.18-26.83,81.91a15.18,15.18,0,0,0,2.7,5.1l13.4,2.91s7.43-.52,8.65-3.23S230.88,191.2,230.88,191.2Z" style="fill:#37474f"></path><path d="M284.4,272.87a6,6,0,0,1-2.67,3.11v2.68H210.27V276a5.9,5.9,0,0,1-2.67-3.11c-.89-2.27,11.75-65,14.59-70.16a71.74,71.74,0,0,1,8.68-11.51s4.24,12.08,15.13,12.08,15.12-12.08,15.12-12.08,5.7,6.1,8.69,11.51C272.64,207.83,285.29,270.6,284.4,272.87Z" style="fill:#37474f"></path><path d="M216.17,228.63c.45-2.33.86-4.67,1.27-7s.87-4.76,1.2-7.14a.06.06,0,0,0-.12,0c-.56,2.12-1,4.28-1.49,6.42-.38,1.62-.73,3.24-1.08,4.86,0-.29,0-.58,0-.87,0-1.51.09-3,.23-4.51,0-.19-.31-.22-.34,0a29.82,29.82,0,0,0-.33,6.33c0,.26,0,.52.07.79l-2.67,12.82c-1.79,8.62-3.49,17.26-5.21,25.9-.44,2.19-1.11,4.66-.41,6.86a4.69,4.69,0,0,0,3.34,3.32.08.08,0,0,0,0-.15c-1.75-.64-2.55-2.51-2.66-4.25a24.05,24.05,0,0,1,.86-6.13l2.49-12.46c1.59-7.94,3.12-15.88,4.65-23.83.15,0,.29-.11.15-.28a.08.08,0,0,0-.08,0h0C216.1,229,216.13,228.82,216.17,228.63Z" style="fill:#455a64"></path><path d="M275.68,228.63c-.45-2.33-.86-4.67-1.27-7s-.87-4.76-1.2-7.14a.06.06,0,0,1,.12,0c.56,2.12,1,4.28,1.49,6.42.38,1.62.73,3.24,1.08,4.86,0-.29,0-.58,0-.87,0-1.51-.09-3-.23-4.51a.17.17,0,0,1,.33,0,29.82,29.82,0,0,1,.34,6.33c0,.26-.05.52-.07.79L279,240.26c1.79,8.62,3.49,17.26,5.21,25.9.44,2.19,1.11,4.66.41,6.86a4.69,4.69,0,0,1-3.34,3.32.08.08,0,0,1,0-.15c1.75-.64,2.55-2.51,2.66-4.25a24.05,24.05,0,0,0-.86-6.13l-2.49-12.46c-1.59-7.94-3.12-15.88-4.65-23.83-.15,0-.3-.11-.15-.28a.08.08,0,0,1,.08,0h0C275.75,229,275.71,228.82,275.68,228.63Z" style="fill:#455a64"></path><path d="M291.08,186h-1v-5.89c0-.33.22-.46.7-.72,1.11-.61,4-2.21,4-5.11,0-4.55-3.24-4.91-4.23-4.91-2.5,0-5,1.5-5,4.85h-1c0-4,3.11-5.85,6-5.85,2.41,0,5.23,1.55,5.23,5.91,0,3.49-3.3,5.3-4.55,6l-.18.11Z" style="fill:#263238"></path><path d="M322.9,203.27h-2.18a3.54,3.54,0,0,0-1.46-2.8c-1.66-1.27-11.62-3.61-14.12-4.52s-10.06-4.33-11.42-4.93a9.76,9.76,0,0,0-6.46,0c-1.37.6-8.92,4-11.42,4.93s-12.46,3.25-14.13,4.52a3.57,3.57,0,0,0-1.46,2.8h-2.18c-1.29-1.42-1.33-3.2,1.07-5.08s11-4.6,14-5.83,12.78-7.89,14.27-8.3a14.82,14.82,0,0,1,6.22,0c1.48.41,11.27,7.08,14.26,8.3s11.6,4,14,5.83S324.2,201.85,322.9,203.27Z" style="fill:#7E3D19"></path><path d="M322.9,203.27h-2.18a3.54,3.54,0,0,0-1.46-2.8c-1.66-1.27-11.62-3.61-14.12-4.52s-10.06-4.33-11.42-4.93a9.76,9.76,0,0,0-6.46,0c-1.37.6-8.92,4-11.42,4.93s-12.46,3.25-14.13,4.52a3.57,3.57,0,0,0-1.46,2.8h-2.18c-1.29-1.42-1.33-3.2,1.07-5.08s11-4.6,14-5.83,12.78-7.89,14.27-8.3a14.82,14.82,0,0,1,6.22,0c1.48.41,11.27,7.08,14.26,8.3s11.6,4,14,5.83S324.2,201.85,322.9,203.27Z" style="opacity:0.2"></path><path d="M328.88,323.05a6,6,0,0,1-2.67,3.11v2.68l-36,4.14-35.44-4.14v-2.68a5.9,5.9,0,0,1-2.67-3.11c-.89-2.27,11.75-115.22,14.59-120.34a71.74,71.74,0,0,1,8.68-11.51s4.24,4.46,15.13,4.46,15.12-4.46,15.12-4.46,5.7,6.1,8.69,11.51C317.12,207.83,329.77,320.78,328.88,323.05Z" style="fill:#a6a6a6"></path><path d="M305.61,191.2s14.61,4.23,17.87,8.26c3.84,4.76,27.53,79.18,26.82,81.91a15.06,15.06,0,0,1-2.69,5.1l-13.4,2.91s-7.43-.52-8.66-3.23S305.61,191.2,305.61,191.2Z" style="fill:#dbdbdb"></path><path d="M275.36,191.2s-14.61,4.23-17.86,8.26c-3.85,4.76-27.53,79.18-26.83,81.91a15,15,0,0,0,2.7,5.1l13.4,2.91s7.43-.52,8.65-3.23S275.36,191.2,275.36,191.2Z" style="fill:#dbdbdb"></path><path d="M286.28,202.63v136l-31.53-10V326a5.9,5.9,0,0,1-2.67-3.11c-.89-2.27,11.75-115,14.59-120.16a71.74,71.74,0,0,1,8.68-11.51S278.48,200.13,286.28,202.63Z" style="fill:#dbdbdb"></path><path d="M328.88,322.87a6,6,0,0,1-2.67,3.11v2.68l-30.91,10V202.41c7.34-2.76,10.3-11.21,10.3-11.21s5.7,6.1,8.69,11.51C317.12,207.83,329.77,320.6,328.88,322.87Z" style="fill:#dbdbdb"></path><path d="M263.89,217.74c-1.07,4.4-1.71,8.93-2.39,13.41l-.09.58.07-1.52c.06-1.64.09-3.27.12-4.9,0-.26-.39-.25-.4,0-.09,2.14-.14,4.29-.18,6.43,0,.51,0,1,0,1.54a11.1,11.1,0,0,0,0,1.29q-.72,5-1.39,9.95c-1.2,8.94-2.35,17.9-3.2,26.88-.48,5.09-.86,10.19-1.17,15.3,0,.11.19.14.2,0q1.76-13.46,3.35-26.91t3.46-27q.54-3.81,1-7.64c.3-2.48.67-5,.84-7.46C264.12,217.63,263.92,217.62,263.89,217.74Z" style="fill:#a6a6a6"></path><path d="M316.78,217.74c1.07,4.4,1.71,8.93,2.39,13.41,0,.19.05.39.08.58l-.06-1.52c-.06-1.64-.09-3.27-.12-4.9,0-.26.39-.25.4,0,.08,2.14.14,4.29.18,6.43,0,.51,0,1,0,1.54a11.1,11.1,0,0,1,0,1.29q.72,5,1.39,9.95c1.2,8.94,2.35,17.9,3.2,26.88.47,5.09.85,10.19,1.17,15.3,0,.11-.19.14-.21,0q-1.74-13.46-3.34-26.91c-1.08-9-2.21-18-3.47-27q-.53-3.81-1-7.64c-.3-2.48-.67-5-.84-7.46C316.55,217.63,316.75,217.62,316.78,217.74Z" style="fill:#a6a6a6"></path><rect x="197.64" y="89.45" width="71.94" height="51.45" style="fill:#7E3D19"></rect><rect x="197.64" y="89.45" width="71.94" height="13.58" style="opacity:0.1"></rect><rect x="193.98" y="85.88" width="79.26" height="10.36" style="fill:#7E3D19"></rect><rect x="224.65" y="101.53" width="17.93" height="4.99" style="fill:#263238"></rect><rect x="278.98" y="89.45" width="71.94" height="51.45" style="fill:#7E3D19"></rect><rect x="278.98" y="89.45" width="71.94" height="13.58" style="opacity:0.1"></rect><rect x="275.32" y="85.88" width="79.26" height="10.36" style="fill:#7E3D19"></rect><rect x="305.98" y="101.53" width="17.93" height="4.99" style="fill:#263238"></rect><path d="M447.5,398.32c-2.28.79-67.94,1.42-70.46-.14-1-.59-2.25-10.15-2.7-21.73l43-.51s25.24,11,27.82,13S449.79,397.53,447.5,398.32Z" style="fill:#7E3D19"></path><path d="M446.54,395.71c-11-.17-55.43.2-66.33.88-.09,0-.09.06,0,.06,10.91.41,55.33-.32,66.33-.76C446.77,395.88,446.77,395.71,446.54,395.71Z" style="fill:#263238"></path><path d="M440.89,386.63a8.83,8.83,0,0,0-6.56,2.75,8.55,8.55,0,0,0-2.41,5.9c0,.06.13.07.14,0a10.19,10.19,0,0,1,8.83-8.51A.07.07,0,0,0,440.89,386.63Z" style="fill:#263238"></path><path d="M421.59,377c-4.41,0-9.5,1.59-12.21,5.22-.1.14.1.28.23.22a60.52,60.52,0,0,1,12.06-4.9A.28.28,0,0,0,421.59,377Z" style="fill:#263238"></path><path d="M425,378.29c-4.41,0-9.5,1.58-12.2,5.21-.11.14.09.29.22.22a61,61,0,0,1,12.06-4.89A.28.28,0,0,0,425,378.29Z" style="fill:#263238"></path><path d="M428.41,379.58c-4.4,0-9.5,1.58-12.2,5.21-.1.14.1.29.23.22a61.25,61.25,0,0,1,12.05-4.89A.28.28,0,0,0,428.41,379.58Z" style="fill:#263238"></path><path d="M431.83,380.87c-4.41,0-9.5,1.59-12.21,5.22-.1.14.1.28.23.22a60.73,60.73,0,0,1,12.06-4.89A.28.28,0,0,0,431.83,380.87Z" style="fill:#263238"></path><path d="M382.92,386.1c-4.95.07-4.86,7.75.09,7.69S387.87,386,382.92,386.1Z" style="fill:#fff"></path><path d="M426.23,365.19c-2.24-1.83-5,0-6.39,1.94a23.12,23.12,0,0,0-3.9,11.31.12.12,0,0,0,.14.12.54.54,0,0,0,.8.35c3.11-2.2,6.72-4.17,9.06-7.26C427.32,369.85,428.36,366.92,426.23,365.19Zm-5.31,9.42c-1.51,1.12-3.06,2.15-4.52,3.33a66.8,66.8,0,0,1,2.42-6.55,23.69,23.69,0,0,1,1.58-3c.94-1.46,5.23-5.19,5.71-.4C426.38,370.64,422.71,373.27,420.92,374.61Z" style="fill:#263238"></path><path d="M405,380.17c3.84.56,7.79-.57,11.55-1.19a.55.55,0,0,0,.33-.81.12.12,0,0,0,0-.19,23.06,23.06,0,0,0-10.71-5.31c-2.33-.43-5.6.23-5.92,3.1S402.77,379.85,405,380.17Zm-2.68-2.48c-3-3.75,2.65-4.11,4.35-3.73a25.63,25.63,0,0,1,3.22,1c2.2.82,4.23,1.94,6.33,3-1.87.19-3.71.54-5.56.8C408.45,379.06,404,379.76,402.33,377.69Z" style="fill:#263238"></path><path d="M447.5,398.32c-2.28.79-67.95,1.42-70.47-.14-.95-.59-2.24-10.15-2.69-21.73L413.6,376l34.87,20C448.53,397.17,448.25,398.06,447.5,398.32Z" style="opacity:0.2"></path><path d="M435.6,398.32c-2.29.79-68,1.42-70.47-.14-1-.59-2.24-10.15-2.7-21.73l43-.51s25.24,11,27.82,13S437.88,397.53,435.6,398.32Z" style="fill:#7E3D19"></path><path d="M434.63,395.71c-11-.17-55.43.2-66.33.88-.08,0-.08.06,0,.06,10.91.41,55.33-.32,66.33-.76C434.86,395.88,434.86,395.71,434.63,395.71Z" style="fill:#263238"></path><path d="M429,386.63a8.85,8.85,0,0,0-6.56,2.75,8.58,8.58,0,0,0-2.4,5.9c0,.06.12.07.13,0a10.2,10.2,0,0,1,8.83-8.51A.07.07,0,0,0,429,386.63Z" style="fill:#263238"></path><path d="M409.68,377c-4.41,0-9.5,1.59-12.2,5.22-.11.14.09.28.22.22a61,61,0,0,1,12.06-4.9A.28.28,0,0,0,409.68,377Z" style="fill:#263238"></path><path d="M413.09,378.29c-4.41,0-9.5,1.58-12.2,5.21-.11.14.1.29.23.22a60.64,60.64,0,0,1,12.05-4.89A.28.28,0,0,0,413.09,378.29Z" style="fill:#263238"></path><path d="M416.5,379.58c-4.4,0-9.49,1.58-12.2,5.21-.1.14.1.29.23.22a61.09,61.09,0,0,1,12.06-4.89A.28.28,0,0,0,416.5,379.58Z" style="fill:#263238"></path><path d="M419.92,380.87c-4.41,0-9.5,1.59-12.2,5.22-.11.14.09.28.22.22A61,61,0,0,1,420,381.42.28.28,0,0,0,419.92,380.87Z" style="fill:#263238"></path><path d="M371,386.1c-4.94.07-4.86,7.75.09,7.69S376,386,371,386.1Z" style="fill:#fff"></path><path d="M414.33,365.19c-2.25-1.83-5,0-6.4,1.94a23.12,23.12,0,0,0-3.9,11.31.12.12,0,0,0,.14.12.55.55,0,0,0,.8.35c3.11-2.2,6.72-4.17,9.07-7.26C415.41,369.85,416.45,366.92,414.33,365.19ZM409,374.61c-1.51,1.12-3.06,2.15-4.52,3.33a66.8,66.8,0,0,1,2.42-6.55,23.69,23.69,0,0,1,1.58-3c.94-1.46,5.23-5.19,5.72-.4C414.47,370.64,410.81,373.27,409,374.61Z" style="fill:#263238"></path><path d="M393.1,380.17c3.85.56,7.79-.57,11.56-1.19a.54.54,0,0,0,.32-.81.12.12,0,0,0,0-.19,23.06,23.06,0,0,0-10.71-5.31c-2.32-.43-5.6.23-5.92,3.1S390.86,379.85,393.1,380.17Zm-2.68-2.48c-3-3.75,2.65-4.11,4.35-3.73a25.63,25.63,0,0,1,3.22,1,68.85,68.85,0,0,1,6.33,3c-1.87.19-3.7.54-5.56.8C396.54,379.06,392.08,379.76,390.42,377.69Z" style="fill:#263238"></path></g><g id="freepik--Floor--inject-5"><polygon points="27.88 407.49 83.41 407.25 138.94 407.16 250 406.99 361.06 407.16 416.59 407.25 472.12 407.49 416.59 407.74 361.06 407.82 250 407.99 138.94 407.82 83.41 407.74 27.88 407.49" style="fill:#263238"></polygon></g><g id="freepik--Plant--inject-5"><path d="M75.72,248.13S98.1,245,92.87,218C92.87,218,67.86,223.59,75.72,248.13Z" style="fill:#7E3D19"></path><path d="M75.72,248.13S98.1,245,92.87,218C92.87,218,67.86,223.59,75.72,248.13Z" style="opacity:0.1"></path><path d="M76.85,242.49c.44-1.37,1-2.71,1.52-4,0-.17,0-.34.06-.51l.09-1.11c.07-.81.12-1.62.16-2.42.1-1.62.2-3.23.23-4.85a.07.07,0,1,1,.13,0c0,1.62,0,3.24,0,4.85,0,.81-.08,1.62-.13,2.43,0,.17,0,.35,0,.53a48.23,48.23,0,0,1,4.49-7.67c.77-1.08,1.58-2.11,2.45-3.11s1.83-2,2.73-3c.06-.07.16,0,.1.1a40.18,40.18,0,0,0-4.32,5.73c-.68,1-1.32,2.09-1.93,3.16l.21-.08.8-.32c.6-.23,1.21-.47,1.82-.69l3.6-1.34c.08,0,.13.1,0,.12-1.19.48-2.36,1-3.54,1.49l-1.73.74-.88.37a3.16,3.16,0,0,1-.59.2c-.45.82-.9,1.63-1.31,2.46A58,58,0,0,0,78.06,242c0,.15-.1.31-.16.46a12.38,12.38,0,0,1,1.84-.88l2.31-1.06c1.57-.72,3.13-1.45,4.64-2.3.07,0,.14.08.06.12-1.54.84-3,1.73-4.58,2.57-.77.42-1.55.82-2.34,1.21a7.22,7.22,0,0,1-2.1.84,26.52,26.52,0,0,0-1.47,6.35c-.25,3-.22,6.13-.29,9.2,0,.05-.08.05-.08,0-.22-2.77-.35-5.58-.36-8.37A24.23,24.23,0,0,1,76.85,242.49Z" style="fill:#263238"></path><path d="M80.29,226.6a26.15,26.15,0,0,1,.23,4.76,0,0,0,1,1-.07,0c-.09-1.58-.1-3.15-.29-4.73C80.15,226.55,80.29,226.51,80.29,226.6Z" style="fill:#263238"></path><path d="M86.7,228a17,17,0,0,0,2.87-1.41.07.07,0,1,1,.07.12,11.13,11.13,0,0,1-2.91,1.39A.05.05,0,0,1,86.7,228Z" style="fill:#263238"></path><path d="M75,291c0-2.47.07-4.94.1-7.42,0-8.21.11-16.43.26-24.64q.17-9.78.45-19.56a.11.11,0,0,1,.06-.09l0-5.34s0-.07.1-.07.11,0,.11.07c0,1.79,0,3.57,0,5.35,0,0,0,0,0,.08.33,11.61.62,23.22.69,34.83,0,2.36,0,4.72,0,7.08Q77,292.67,77,304c0,1.21,0,2.41,0,3.62,0,6.92-.07,13.85-.07,20.77,0,.38-.41.56-.85.58s-1-.18-1-.61c0-7.63,0-15.27,0-22.91Q75,298.26,75,291Z" style="fill:#263238"></path><path d="M84.35,283.52s10.77-8,21-2.59,11.82,26.17,11.82,26.17-15,2.15-24.46-6.85C83.6,291.58,84.35,283.52,84.35,283.52Z" style="fill:#7E3D19"></path><path d="M81.42,284a12.79,12.79,0,0,1,6.23-.81,8.43,8.43,0,0,1,1.32-.13l1.52-.12,3.14-.22c2.12-.16,4.25-.29,6.37-.5.08,0,.1.13,0,.14-2.1.26-4.19.56-6.29.77-1.08.11-2.17.23-3.25.3l-.79.08,1,.24a25.35,25.35,0,0,1,4.88,2c.84.15,1.69.39,2.52.58,1.33.32,2.66.66,4,1,2.62.68,5.2,1.45,7.8,2.21.08,0,0,.15,0,.13-2.59-.64-5.2-1.22-7.8-1.84-1.26-.3-2.53-.59-3.79-.9l-1-.23a31.51,31.51,0,0,1,7.66,6.65,41.75,41.75,0,0,1,5.32,8.39c0,.08-.07.15-.12.07a40.71,40.71,0,0,0-6.43-8.44c0,.14.09.28.14.43.2.63.39,1.26.59,1.9.4,1.27.81,2.53,1.18,3.81,0,.08-.1.11-.13,0-.45-1.23-.88-2.47-1.32-3.7l-.63-1.82c-.12-.31-.22-.63-.33-.95l-.1-.28a38,38,0,0,0-3.82-3.26,29.75,29.75,0,0,0-5.72-3.28c0,.19.08.38.11.56.11.49.22,1,.32,1.47.21,1,.41,2,.61,3.06.4,2.09.65,4.2,1,6.28a.07.07,0,0,1-.14,0c-.48-2.09-1.1-4.15-1.57-6.26-.23-1.05-.47-2.1-.69-3.15l-.3-1.48c0-.27-.12-.54-.15-.82l-.58-.24a16.94,16.94,0,0,0-9-1.23,8.81,8.81,0,0,0-6.48,5.19c-.1.24-.47.09-.42-.15A8.36,8.36,0,0,1,81.42,284Z" style="fill:#263238"></path><path d="M97.9,292.88c.3,1.37.61,2.73.91,4.1a30,30,0,0,1,.75,4c0,.05-.07.05-.09,0a30.6,30.6,0,0,1-.91-4c-.27-1.35-.53-2.7-.79-4C97.75,292.83,97.88,292.8,97.9,292.88Z" style="fill:#263238"></path><path d="M108.31,296.35c1.37.7,2.7,1.49,4.13,2.06a.07.07,0,1,1,0,.12,42.05,42.05,0,0,1-4.11-2.13S108.28,296.33,108.31,296.35Z" style="fill:#263238"></path><path d="M81.93,268.87s13.16.84,19.28-7.84S106,240,106,240s-13.82,1.68-19.31,7.91S81.93,268.87,81.93,268.87Z" style="fill:#7E3D19"></path><path d="M75.75,281.85c.46-1.41,1-2.8,1.56-4.18s1-2.64,1.63-3.94a83,83,0,0,1,4-7.75c.93-1.6,1.92-3.16,3-4.69,0-.23.06-.46.1-.7l.18-1.22c.13-.83.28-1.66.42-2.49.3-1.82.68-3.63,1-5.45,0-.08.15-.08.14,0-.26,1.79-.45,3.6-.7,5.4-.12.88-.24,1.76-.37,2.64l-.15,1A92.92,92.92,0,0,1,92.93,252c.31-.37.64-.72,1-1.08,0-.1.08-.2.12-.3.1-.25.2-.5.29-.75l.57-1.57c.37-1,.7-2.07,1-3.13,0-.09.15,0,.13,0-.27,1.08-.55,2.16-.86,3.22q-.23.78-.51,1.53l-.09.26c1.68-1.84,3.44-3.6,5.21-5.35.06-.06.16,0,.09.1a95.54,95.54,0,0,0-9.32,11.42c.32-.1.65-.18,1-.25,1-.19,2-.34,3.06-.47,2.15-.27,4.28-.54,6.42-.88a.07.07,0,0,1,0,.14c-2,.4-4.06.86-6.08,1.32-1,.22-1.92.41-2.88.6a18.45,18.45,0,0,0-2.31.66c-.21.3-.43.6-.64.91-1,1.4-1.89,2.84-2.8,4.28l1.34-.26c1-.2,2-.38,3.06-.55,2-.33,4-.68,6-1.13a.07.07,0,0,1,0,.13c-2,.47-4,1-6,1.56-1,.25-1.94.49-2.91.7l-1.46.32a3.41,3.41,0,0,1-.6.1q-2.88,4.68-5.39,9.57c-.74,1.43-1.44,2.87-2.13,4.33s-1.3,3-1.95,4.54C76.13,282.31,75.65,282.18,75.75,281.85Z" style="fill:#263238"></path><path d="M89.22,251.61c.25-1.26.52-2.51.8-3.76,0-.08.14,0,.13,0-.25,1.23-.49,2.47-.71,3.71a35.28,35.28,0,0,1-.75,3.68s0,0,0,0A26.67,26.67,0,0,1,89.22,251.61Z" style="fill:#263238"></path><path d="M96.9,251.24c.61-.3,1.25-.55,1.89-.79l1-.39.51-.21a2.09,2.09,0,0,0,.55-.24c.1-.08.17.1.07.11a2.83,2.83,0,0,0-.57.23l-.49.23-1,.43a17,17,0,0,1-1.94.76C96.87,251.4,96.83,251.28,96.9,251.24Z" style="fill:#263238"></path><path d="M68.46,258.52s-8-14.88-20.08-17.18S28.85,251.5,28.85,251.5s8.83,11.29,19.95,13.26S68.46,258.52,68.46,258.52Z" style="fill:#7E3D19"></path><path d="M40.26,248a32.88,32.88,0,0,1,9.5.11l-.54-.29-2.69-1.38c-1.86-1-3.74-2-5.69-2.78a.07.07,0,1,1,.06-.13c1.89.89,3.86,1.63,5.76,2.5,1,.44,1.89.89,2.81,1.38.6.32,1.26.62,1.85,1A33.49,33.49,0,0,1,59,251l-1.51-1.65A50.28,50.28,0,0,0,54,245.67c-.06-.06,0-.16.1-.1,1.27,1.16,2.61,2.22,3.84,3.42.6.58,1.17,1.18,1.72,1.8.28.31.56.63.82,1a31.95,31.95,0,0,1,16.25,21.93c0,.09-.11.13-.13.05a36.63,36.63,0,0,0-8.91-15.07,35,35,0,0,0-16.23-9.4,35.52,35.52,0,0,0-11.2-1A.12.12,0,0,1,40.26,248Z" style="fill:#263238"></path><path d="M28.84,251.5s8.84,11.29,20,13.26c8.48,1.5,15.45-2.92,18.29-5.1l.61-1S62,253.82,51.12,251,28.84,251.5,28.84,251.5Z" style="opacity:0.1"></path><path d="M47.3,242.7A29.79,29.79,0,0,1,50,244.48a17.5,17.5,0,0,1,2.33,2.14c.07.07,0,.16-.1.1-.8-.7-1.61-1.4-2.45-2.06a24.26,24.26,0,0,0-2.55-1.84C47.15,242.77,47.22,242.66,47.3,242.7Z" style="fill:#263238"></path><path d="M40.65,245.22l1.35.54,1.35.56c.1,0,0,.19-.05.15L42,245.93l-1.34-.58C40.53,245.32,40.57,245.19,40.65,245.22Z" style="fill:#263238"></path><path d="M70.05,277.24S67.92,292,56.82,297.16s-24.62,0-24.62,0S37.52,265.23,70.05,277.24Z" style="fill:#7E3D19"></path><path d="M39.84,287.56c1-.11,2-.29,3.06-.47l1.49-.28.78-.16c.3-.28.59-.56.9-.83a45.42,45.42,0,0,1,6.78-4.92,38.12,38.12,0,0,1,4.07-2.09h-.21l-3.65.16c-2.44.11-4.87.16-7.3.32-.09,0-.09-.13,0-.14,2.44-.16,4.87-.43,7.31-.64l3.55-.32,1.83-.16.47-.05c.63-.23,1.27-.46,1.91-.66a17.29,17.29,0,0,1,9.4-.51c2.79.71,5.58,2.54,6.3,5.48,0,.11-.13.18-.17.07-1-2.46-3.77-3.69-6.24-4.21a14.85,14.85,0,0,0-5-.09,12.77,12.77,0,0,1-.56,2.23c-.31,1-.61,2.08-.93,3.11-.63,2.07-1.32,4.13-1.93,6.2a.07.07,0,0,1-.14,0c.52-2.07,1-4.16,1.45-6.23.25-1,.51-2,.76-3a16.76,16.76,0,0,1,.56-2.1,25.13,25.13,0,0,0-2.88.68,41.5,41.5,0,0,0-5,1.84c-.16,1.05-.4,2.09-.64,3.13-.3,1.3-.64,2.59-1,3.87a.07.07,0,0,1-.13,0c0-.08,0-.16.05-.24h0c.25-1.21.52-2.41.77-3.62.21-1,.4-1.95.61-2.92-1.38.62-2.74,1.3-4,2.05,0,.3-.1.61-.14.88-.08.51-.17,1-.27,1.52-.2,1.14-.43,2.27-.7,3.39a54.46,54.46,0,0,1-1.91,6.42.1.1,0,0,1,0,.09l-.07.07c0,.06-.12,0-.11-.07.51-2.18,1.1-4.35,1.58-6.55.24-1.09.48-2.19.7-3.29.11-.55.21-1.1.32-1.65,0-.16,0-.33.07-.5a48.49,48.49,0,0,0-4.32,2.89,47.22,47.22,0,0,0-6.61,6c-.08.09-.24,0-.16-.13A38.59,38.59,0,0,1,43,288.82c.56-.6,1.14-1.18,1.73-1.75l-.19,0-1.56.23c-1,.14-2.05.24-3.08.36C39.79,287.71,39.76,287.57,39.84,287.56Z" style="fill:#263238"></path><path d="M47.64,292.57h0c0-.13,0-.26.07-.39s.11-.32.13-.48h0c.23-1,.43-2,.6-3,0-.07.13-.05.12,0a11.86,11.86,0,0,1-.84,3.85s-.08,0-.08,0Z" style="fill:#263238"></path><path d="M56.93,292.33a.07.07,0,0,1,.07-.06c.31-1.31.61-2.62.88-3.93l.42-2.08c.07-.37.14-.75.2-1.12a3.47,3.47,0,0,1,.24-1,.07.07,0,0,1,.13,0,6.72,6.72,0,0,1-.28,2c-.14.72-.28,1.44-.44,2.16-.32,1.45-.68,2.9-1.09,4.34a.08.08,0,0,1-.15,0C56.92,292.54,56.92,292.44,56.93,292.33Z" style="fill:#263238"></path><path d="M40.86,283.31c2-.27,4-.57,6.08-.81.08,0,.12.12,0,.13-2,.3-4,.55-6.08.82C40.8,283.46,40.77,283.32,40.86,283.31Z" style="fill:#263238"></path><path d="M75.73,242.63s6.79-29.79-25.21-41.84C50.52,200.79,41.65,240,75.73,242.63Z" style="fill:#7E3D19"></path><path d="M68.82,225.74l-.34-.21c-.6-.33-1.2-.68-1.81-1L63,222.44c-2.44-1.37-4.85-2.79-7.31-4.12a.07.07,0,0,1,.07-.12c2.46,1.34,5,2.59,7.45,3.9L66.84,224l1.5.8c-1.07-2-2.21-4-3.47-5.93-1.67-2.55-3.5-5-5.41-7.36a.11.11,0,0,1,.16-.15,51,51,0,0,1,7.4,9.08c0-.11,0-.22,0-.32,0-.74-.06-1.48-.07-2.22,0-1.45,0-2.91,0-4.36,0-.09.13-.09.13,0,.06,1.43.24,2.86.32,4.29,0,.71.07,1.43.09,2.14,0,.39.05.83,0,1.25.66,1.05,1.3,2.11,1.89,3.19a56,56,0,0,1,2.87,6q0-1.11.12-2.22c.09-1.63.29-3.26.36-4.89,0-.09.14-.08.14,0,0,1.64,0,3.27,0,4.9,0,.82,0,1.63-.11,2.44,0,.3,0,.61,0,.91a53.56,53.56,0,0,1,2.41,8.19,87.61,87.61,0,0,1,1.2,9s0,0,0,0a48,48,0,0,0-1.7-8c-.39-1.4-.81-2.8-1.26-4.19-1.33-.63-2.61-1.41-3.89-2.12l-4-2.2c-2.67-1.46-5.34-3-8.09-4.25-.08,0,0-.15.07-.11,2.79,1.26,5.6,2.46,8.34,3.84,1.37.68,2.71,1.42,4,2.17,1.11.62,2.25,1.25,3.31,2-.31-.93-.63-1.85-1-2.76A78.28,78.28,0,0,0,68.82,225.74Z" style="fill:#263238"></path><path d="M71.52,218.93c0-.09.15-.09.14,0-.12,1.7-.17,3.4-.35,5.09,0,.1-.16.1-.15,0C71.22,222.32,71.4,220.63,71.52,218.93Z" style="fill:#263238"></path><path d="M56.18,224.62c2,.8,4,1.57,6,2.4.06,0,0,.12,0,.09-2-.75-4-1.58-6-2.36C56.06,224.71,56.1,224.58,56.18,224.62Z" style="fill:#263238"></path><path d="M53.14,210.88a52.77,52.77,0,0,1,5.69,3.05.08.08,0,0,1-.09.14C56.88,213,55,212,53.06,211,53,211,53.06,210.84,53.14,210.88Z" style="fill:#263238"></path><rect x="53.62" y="307.05" width="46.16" height="48.66" transform="translate(153.4 662.76) rotate(180)" style="fill:#37474f"></rect><rect x="100.59" y="324.27" width="2.36" height="83.34" style="fill:#263238"></rect><rect x="50.69" y="324.27" width="2.36" height="83.34" style="fill:#263238"></rect><rect x="74.39" y="324.27" width="2.36" height="83.34" style="fill:#263238"></rect><rect x="51.87" y="352.59" width="49.9" height="6.74" transform="translate(153.65 711.92) rotate(180)" style="fill:#263238"></rect></g><g id="freepik--Shoes--inject-5"><path d="M407.92,452.05c-2.34.65-68.1-2.75-70.52-4.46-1.12-.79-1-14.81-.52-29.58l42.78,2.08-.6,7.71s24.6,12.56,27.06,14.72S410.25,451.4,407.92,452.05Z" style="fill:#7E3D19"></path><path d="M407.11,449.37c-11-.84-55.49-3.19-66.44-3.18-.08,0-.09.06,0,.07,10.89,1.07,55.39,3.05,66.43,3.29C407.33,449.55,407.34,449.39,407.11,449.37Z" style="fill:#263238"></path><path d="M380.74,425.43c-4.29-1-9.63-.65-13.11,2.27-.13.12,0,.31.18.27a60.92,60.92,0,0,1,12.89-2A.27.27,0,0,0,380.74,425.43Z" style="fill:#263238"></path><path d="M383.78,427.48c-4.3-1-9.64-.65-13.11,2.27-.14.12,0,.31.17.27a61,61,0,0,1,12.89-2A.27.27,0,0,0,383.78,427.48Z" style="fill:#263238"></path><path d="M386.81,429.52c-4.3-1-9.63-.64-13.11,2.28-.13.11,0,.3.17.27a61,61,0,0,1,12.89-2A.28.28,0,0,0,386.81,429.52Z" style="fill:#263238"></path><path d="M389.84,431.57c-4.29-1-9.63-.64-13.11,2.28-.13.11,0,.3.18.27a60.92,60.92,0,0,1,12.89-2A.28.28,0,0,0,389.84,431.57Z" style="fill:#263238"></path><path d="M389.27,415.81c-1.58-2.44-4.81-1.54-6.7-.12a23.24,23.24,0,0,0-7.19,9.59.12.12,0,0,0,.09.17.54.54,0,0,0,.66.57c3.64-1.14,7.69-1.91,10.88-4.13C388.87,420.59,390.77,418.11,389.27,415.81Zm-8,7.35c-1.79.61-3.59,1.12-5.35,1.79a69.44,69.44,0,0,1,4.33-5.51,24.62,24.62,0,0,1,2.43-2.36c1.35-1.11,6.58-3.35,5.57,1.37C387.74,421.06,383.43,422.44,381.31,423.16Z" style="fill:#263238"></path><path d="M364.41,423.58c3.5,1.71,7.61,1.85,11.4,2.41a.53.53,0,0,0,.55-.67c.07,0,.12-.09.07-.17a23.15,23.15,0,0,0-8.59-8.37c-2.08-1.12-5.41-1.5-6.6,1.15C360.12,420.43,362.37,422.59,364.41,423.58Zm-1.8-3.19c-1.72-4.51,3.8-3.11,5.3-2.22a25.63,25.63,0,0,1,2.77,2c1.84,1.46,3.44,3.15,5.12,4.78-1.84-.4-3.7-.63-5.55-1C368,423.58,363.57,422.87,362.61,420.39Z" style="fill:#263238"></path><path d="M256.35,462.32c2.33.65,68.09-2.75,70.51-4.46,1.13-.79,1-14.81.53-29.59l-42.78,2.09.59,7.71s-24.59,12.56-27.05,14.72S254,461.67,256.35,462.32Z" style="fill:#7E3D19"></path><path d="M257.15,459.64c11-.84,55.49-3.19,66.44-3.18.09,0,.09.06,0,.07-10.89,1.07-55.39,3.05-66.43,3.29C256.93,459.82,256.92,459.66,257.15,459.64Z" style="fill:#263238"></path><path d="M283.52,435.7c4.29-1,9.63-.65,13.11,2.27.13.12,0,.31-.17.27a61,61,0,0,0-12.9-2A.27.27,0,0,1,283.52,435.7Z" style="fill:#263238"></path><path d="M280.49,437.74c4.29-1,9.63-.64,13.1,2.28.14.12,0,.3-.17.27a61,61,0,0,0-12.89-2A.28.28,0,0,1,280.49,437.74Z" style="fill:#263238"></path><path d="M277.45,439.79c4.3-1,9.64-.64,13.11,2.28.14.11,0,.3-.17.27a61,61,0,0,0-12.89-2A.28.28,0,0,1,277.45,439.79Z" style="fill:#263238"></path><path d="M274.42,441.84c4.29-1,9.63-.64,13.11,2.28.13.11,0,.3-.17.26a61.65,61.65,0,0,0-12.9-2A.28.28,0,0,1,274.42,441.84Z" style="fill:#263238"></path><path d="M277.25,432.16c3.19,2.22,7.24,3,10.89,4.13.38.12.65-.24.65-.57a.12.12,0,0,0,.09-.17,23.15,23.15,0,0,0-7.19-9.59c-1.89-1.42-5.12-2.32-6.7.12S275.39,430.86,277.25,432.16ZM276,428.72c-1-4.72,4.23-2.48,5.58-1.37a24.51,24.51,0,0,1,2.42,2.36,69.44,69.44,0,0,1,4.33,5.51c-1.76-.67-3.56-1.18-5.34-1.79C280.83,432.71,276.53,431.33,276,428.72Z" style="fill:#263238"></path><path d="M303,428.2c-1.19-2.65-4.51-2.27-6.6-1.15a23.22,23.22,0,0,0-8.59,8.37.12.12,0,0,0,.07.17c0,.33.17.73.56.67,3.78-.56,7.89-.7,11.39-2.41C301.89,432.86,304.15,430.7,303,428.2Zm-9,6c-1.86.32-3.71.55-5.56.95a68.25,68.25,0,0,1,5.13-4.78,24.19,24.19,0,0,1,2.76-2c1.5-.89,7-2.29,5.3,2.22C300.7,433.14,296.23,433.85,294,434.23Z" style="fill:#263238"></path></g></svg>